<?xml version="1.0" encoding="utf-8"?>
<!-- Generator: Adobe Illustrator 25.3.1, SVG Export Plug-In . SVG Version: 6.00 Build 0)  -->
<svg version="1.1" id="Camada_1" xmlns="http://www.w3.org/2000/svg" xmlns:xlink="http://www.w3.org/1999/xlink" x="0px" y="0px"
	 viewBox="0 0 17 16" style="enable-background:new 0 0 17 16;" xml:space="preserve">
<style type="text/css">
	.st0{fill:#ADB5BD;}
</style>
<path class="st0" d="M8.1,0C6,0,5.7,0,4.8,0C4,0.1,3.4,0.2,2.9,0.4c-0.5,0.2-1,0.5-1.4,0.9C1.1,1.7,0.8,2.2,0.6,2.8
	C0.4,3.3,0.2,3.8,0.2,4.7c0,0.9,0,1.1,0,3.3c0,2.2,0,2.4,0,3.3c0,0.9,0.2,1.4,0.4,1.9c0.2,0.5,0.5,1,0.9,1.4
	c0.4,0.4,0.9,0.7,1.4,0.9C3.4,15.8,4,15.9,4.8,16c0.9,0,1.1,0,3.3,0c2.2,0,2.4,0,3.3,0c0.9,0,1.4-0.2,1.9-0.4c0.5-0.2,1-0.5,1.4-0.9
	c0.4-0.4,0.7-0.9,0.9-1.4c0.2-0.5,0.3-1.1,0.4-1.9c0-0.9,0-1.1,0-3.3c0-2.2,0-2.4,0-3.3c0-0.9-0.2-1.4-0.4-1.9
	c-0.2-0.5-0.5-1-0.9-1.4c-0.4-0.4-0.9-0.7-1.4-0.9c-0.5-0.2-1.1-0.3-1.9-0.4C10.6,0,10.3,0,8.1,0z M8.1,1.4c2.1,0,2.4,0,3.2,0
	c0.8,0,1.2,0.2,1.5,0.3c0.3,0.1,0.7,0.3,0.9,0.6c0.3,0.3,0.5,0.6,0.6,0.9c0.1,0.3,0.2,0.7,0.3,1.5c0,0.8,0,1.1,0,3.2
	c0,2.1,0,2.4,0,3.2c0,0.8-0.2,1.2-0.3,1.5c-0.2,0.4-0.3,0.6-0.6,0.9c-0.3,0.3-0.6,0.5-0.9,0.6c-0.3,0.1-0.7,0.2-1.5,0.3
	c-0.8,0-1.1,0-3.2,0c-2.1,0-2.4,0-3.2,0c-0.8,0-1.2-0.2-1.5-0.3c-0.4-0.2-0.6-0.3-0.9-0.6c-0.3-0.3-0.5-0.5-0.6-0.9
	c-0.1-0.3-0.2-0.7-0.3-1.5c0-0.8,0-1.1,0-3.2c0-2.1,0-2.4,0-3.2c0-0.8,0.2-1.2,0.3-1.5C2,2.9,2.2,2.6,2.5,2.3C2.7,2.1,3,1.9,3.4,1.7
	c0.3-0.1,0.7-0.2,1.5-0.3C5.7,1.4,6,1.4,8.1,1.4L8.1,1.4z M8.1,3.9C7.6,3.9,7.1,4,6.6,4.2c-0.5,0.2-1,0.5-1.3,0.9
	C4.8,5.5,4.5,5.9,4.3,6.4C4.1,6.9,4,7.5,4,8c0,0.5,0.1,1.1,0.3,1.6c0.2,0.5,0.5,1,0.9,1.3c0.4,0.4,0.8,0.7,1.3,0.9
	c0.5,0.2,1,0.3,1.6,0.3c0.5,0,1.1-0.1,1.6-0.3c0.5-0.2,1-0.5,1.3-0.9c0.4-0.4,0.7-0.8,0.9-1.3c0.2-0.5,0.3-1,0.3-1.6
	c0-0.5-0.1-1.1-0.3-1.6c-0.2-0.5-0.5-1-0.9-1.3c-0.4-0.4-0.8-0.7-1.3-0.9C9.2,4,8.7,3.9,8.1,3.9z M8.1,10.7c-1.5,0-2.7-1.2-2.7-2.7
	s1.2-2.7,2.7-2.7c1.5,0,2.7,1.2,2.7,2.7S9.6,10.7,8.1,10.7z M13.4,3.7c0,0.3-0.1,0.5-0.3,0.7s-0.4,0.3-0.7,0.3c-0.1,0-0.3,0-0.4-0.1
	c-0.1,0-0.2-0.1-0.3-0.2c-0.1-0.1-0.2-0.2-0.2-0.3c0-0.1-0.1-0.2-0.1-0.4c0-0.1,0-0.3,0.1-0.4c0-0.1,0.1-0.2,0.2-0.3
	C11.8,3,11.9,2.9,12,2.8c0.1,0,0.2-0.1,0.4-0.1C12.9,2.8,13.4,3.2,13.4,3.7z"/>
</svg>
