<?xml version="1.0" encoding="utf-8"?>
<!-- Generator: Adobe Illustrator 25.3.1, SVG Export Plug-In . SVG Version: 6.00 Build 0)  -->
<svg version="1.1" id="Camada_1" xmlns="http://www.w3.org/2000/svg" xmlns:xlink="http://www.w3.org/1999/xlink" x="0px" y="0px"
	 viewBox="0 0 20 16" style="enable-background:new 0 0 20 16;" xml:space="preserve">
<style type="text/css">
	.st0{fill:#ADB5BD;}
</style>
<path class="st0" d="M19.8,1.9c-0.7,0.3-1.5,0.5-2.3,0.6C18.3,2,19,1.2,19.3,0.3c-0.8,0.5-1.7,0.8-2.6,1c-0.4-0.4-0.8-0.7-1.3-0.9
	C14.9,0.1,14.3,0,13.8,0c-2.2,0-4,1.8-4,4c0,0.3,0,0.6,0.1,0.9C6.5,4.8,3.5,3.2,1.5,0.7C1.1,1.4,1,2.1,1,2.8c0,1.4,0.7,2.6,1.8,3.4
	c-0.6,0-1.3-0.2-1.8-0.5v0c0,2,1.4,3.6,3.2,4C3.8,9.7,3.5,9.8,3.1,9.8c-0.3,0-0.5,0-0.8-0.1c0.5,1.6,2,2.8,3.8,2.8
	c-1.4,1.1-3.1,1.7-5,1.7c-0.3,0-0.7,0-1,0C1.9,15.3,4,16,6.3,16c7.4,0,11.5-6.1,11.5-11.5c0-0.2,0-0.4,0-0.5
	C18.6,3.4,19.3,2.7,19.8,1.9z"/>
</svg>
