<?xml version="1.0" encoding="utf-8"?>
<!-- Generator: Adobe Illustrator 25.3.1, SVG Export Plug-In . SVG Version: 6.00 Build 0)  -->
<svg version="1.1" id="Camada_1" xmlns="http://www.w3.org/2000/svg" xmlns:xlink="http://www.w3.org/1999/xlink" x="0px" y="0px"
	 viewBox="0 0 23 16" style="enable-background:new 0 0 23 16;" xml:space="preserve">
<style type="text/css">
	.st0{fill:#ADB5BD;}
</style>
<path class="st0" d="M22.1,7.9c0-0.1,0-0.1,0-0.2c0-0.2,0-0.4,0-0.7c0-0.7-0.1-1.4-0.1-2c-0.1-0.9-0.2-1.6-0.3-2.2
	c-0.2-0.6-0.5-1.1-0.9-1.5c-0.4-0.4-1-0.7-1.5-0.9c-0.7-0.2-2.1-0.3-4-0.4C14.3,0,13.3,0,12.3,0c-0.3,0-0.7,0-0.9,0h-0.7
	c-0.3,0-0.6,0-0.9,0c-1,0-2,0-2.9,0.1c-1.9,0.1-3.3,0.2-4,0.4C2.3,0.6,1.8,0.9,1.3,1.3c-0.4,0.4-0.7,1-0.9,1.5
	C0.3,3.4,0.2,4.2,0.1,5.1C0.1,5.7,0,6.4,0,7.1c0,0.2,0,0.5,0,0.7c0,0.1,0,0.1,0,0.2v0.1c0,0.1,0,0.1,0,0.2c0,0.2,0,0.4,0,0.7
	c0,0.7,0.1,1.4,0.1,2c0.1,0.9,0.2,1.6,0.3,2.2c0.3,1.2,1.2,2.1,2.4,2.4c0.7,0.2,2.1,0.3,4,0.4C7.8,16,8.7,16,9.7,16
	c0.3,0,0.7,0,0.9,0h0.7c0.3,0,0.6,0,0.9,0c1,0,2,0,2.9-0.1c1.9-0.1,3.3-0.2,4-0.4c1.2-0.3,2.1-1.2,2.4-2.4c0.2-0.6,0.3-1.3,0.3-2.2
	c0.1-0.6,0.1-1.3,0.1-2c0-0.2,0-0.5,0-0.7c0-0.1,0-0.1,0-0.2V7.9z M20.3,8.1c0,0.1,0,0.1,0,0.2c0,0.2,0,0.4,0,0.6
	c0,0.7-0.1,1.3-0.1,1.9c-0.1,0.8-0.2,1.4-0.3,1.9c-0.2,0.6-0.6,1-1.2,1.2c-0.5,0.1-1.8,0.2-3.6,0.3c-0.9,0-1.9,0.1-2.8,0.1
	c-0.3,0-0.6,0-0.9,0h-0.7l-0.9,0c-1,0-1.9,0-2.8-0.1c-1.8-0.1-3.1-0.2-3.6-0.3c-0.6-0.2-1-0.6-1.2-1.2c-0.1-0.4-0.2-1.1-0.3-1.9
	c-0.1-0.6-0.1-1.3-0.1-1.9c0-0.2,0-0.4,0-0.6c0-0.1,0-0.1,0-0.2V7.9c0-0.1,0-0.1,0-0.2c0-0.2,0-0.4,0-0.6c0-0.7,0.1-1.3,0.1-1.9
	C2,4.4,2.1,3.8,2.2,3.3c0.2-0.6,0.6-1,1.2-1.2C3.9,2,5.2,1.9,6.9,1.9c0.9,0,1.9-0.1,2.8-0.1c0.3,0,0.7,0,0.9,0h0.7l0.9,0
	c1,0,1.9,0,2.8,0.1c1.8,0.1,3.1,0.2,3.6,0.3c0.6,0.2,1,0.6,1.2,1.2c0.1,0.4,0.2,1.1,0.3,1.9c0.1,0.6,0.1,1.3,0.1,1.9
	c0,0.2,0,0.4,0,0.6c0,0.1,0,0.1,0,0.2V8.1z M8.8,11.3L14.6,8L8.8,4.7V11.3z"/>
</svg>
