<?xml version="1.0" encoding="utf-8"?>
<!-- Generator: Adobe Illustrator 25.3.1, SVG Export Plug-In . SVG Version: 6.00 Build 0)  -->
<svg version="1.1" id="Camada_1" xmlns="http://www.w3.org/2000/svg" xmlns:xlink="http://www.w3.org/1999/xlink" x="0px" y="0px"
	 viewBox="0 0 86 85" style="enable-background:new 0 0 86 85;" xml:space="preserve">
<style type="text/css">
	.st0{fill:#008237;}
	.st1{fill:#FFFFFF;}
	.st2{fill:#FFCD00;}
	.st3{fill:#1A4694;}
</style>
<g>
	<path class="st0" d="M50.5,13.4c0.1-0.3,0-0.8,0.3-1c0.3-0.3,0.4-0.3,0.5-0.4c0.2-0.2,0.4-0.2,0.7-0.2h3.5c0.3,0,0.8-0.1,0.9,0.2
		c0.2,0.3-0.1,0.8-0.2,0.9c-0.2,0.4-0.4,0.7-0.7,0.9c-0.1,0.2-0.2,0.3-0.3,0.5c-0.2,0.2-0.4,0.3-0.7,0.4c-0.2,0-0.4,0.1-0.6,0.2
		c-0.2,0.1-0.4,0.2-0.6,0.3c-0.3,0.2-0.7,0.2-1,0.1c-0.2,0-0.5-0.1-0.7-0.1c-0.4-0.1-0.1-0.2-0.2-0.5c-0.1-0.2-0.3-0.3-0.5-0.2
		c-0.2,0-0.4,0-0.5-0.2C50.4,14,50.4,13.7,50.5,13.4z"/>
	<path class="st0" d="M9,21.6l7.2-0.1c2.5,0.1,4.8,1,6.6,2.7V12h10.4v9.8c0.7-0.1,1.2-0.2,1.9-0.2c3.2-0.1,6.3,1.1,8.5,3.4
		c2.3-2.2,5.3-3.4,8.5-3.4c2.7-0.1,5.2,0.7,7.3,2.3l0.1,0.1c2.1-1.6,4.7-2.5,7.3-2.4c0.6,0,1.2,0.1,1.8,0.2v-3.5l-0.5-0.3
		c-0.4-0.3-0.7-0.6-1-0.8c-0.6-0.2-0.7,0.2-1,0.5c-0.3,0.4-0.8,0.5-1.2,0.4c-0.4-0.2-0.4-0.7-0.6-0.9c-0.2-0.4-0.5-0.8-0.8-1.1
		c-0.8-0.9-2.2-0.9-3-1.5c-0.7-0.5-1.5-0.8-2.4-0.7c-0.6,0-1,0.2-1.5,0.5c-0.2,0.2-0.4,0.5-0.5,0.8c-0.2,0.6-0.5,1.1-0.9,1.5
		c-1.3,0.7-2.9,0.6-4.2-0.3c-0.3-0.3-0.6-0.6-0.9-0.8c-0.5-0.2-0.9,0-1.3,0c-0.6-0.2-1-0.4-1.6-0.7c0.6-0.3,1-0.7,1.5-1
		c0.2-0.2,0.5-0.5,0.5-0.7s-0.6-0.5-0.4-0.8c0.4-0.1,0.7-0.2,0.9-0.5c0.4-0.3,0.6-0.7,0.9-0.9c0.3-0.3,1-0.6,1.2-1.1
		C52,9.6,51.9,9.3,52,9c0.1-0.3,0.3-0.4,0.4-0.6c0.3-0.6-0.1-0.8-0.5-1.1c-0.6-0.5-0.9-0.9-1.3-1.5c-0.2-0.5-0.4-1-0.5-1.6
		C50,3.7,50.2,3,49.8,2.7c-0.6-0.8-1,0.3-1.3,0.8c-0.3,0.9-0.7,1.6-1.1,2.3c-0.5,0.4-1,0.6-1.7,0.6c-0.4,0-1.3,0.5-1.5,0.4
		c-1.3-0.6-2.8-0.6-4.2-0.2c-0.8,0.3-0.9,1-2,0.9c-0.5-0.1-1-0.1-1.5-0.1C36,7.4,35.7,8,35.2,8.1c-0.5,0.1-1-0.1-1.5,0.1
		c-0.5,0.2-0.9,0.8-1.5,0.3c-0.4-0.4-0.8-0.9-0.9-1.4c-0.4-0.7-0.6-1.4-0.5-2.2c0.1-1,1.1-3.2-0.3-3.8c-0.1-0.2,0.2-0.3,0.2-0.5
		c0-0.3-0.3-0.6-0.6-0.6c-0.5,0-0.9,0.7-1.2,0.9c-0.3,0.6-0.9,0.9-1.4,0.9c-0.9,0-1.8,0.3-2.6,0.8c-0.3,0.2-0.4,0.4-0.8,0.5
		c-0.2,0-0.4,0-0.5-0.1c-0.4-0.1-0.9-0.2-1.2-0.3c-0.3-0.1-1.6-1.2-1.7-0.5c-0.1,0.3,0.2,0.7,0.4,0.9c0.2,0.2,0.3,0.3,0.2,0.7
		c0,0.3-0.1,0.6-0.2,0.9C21,4.8,20.8,5,20.8,5.3c0,0.5,0.4,0.5,0.8,0.5C21.7,5.9,21.9,5.9,22,6c0.3,0.1,0.7,0.2,0.9,0.2
		c-0.2,0.3-0.4,0.5-0.7,0.7C22,6.9,21.7,7,21.5,7.1c-0.7,0.3-0.9,0.9-1.7,1.1c-1,0.3-1.6,0.9-2.8,0.8c-0.8-0.2-1.4-0.6-2-1.1
		c-0.4-0.5-0.5-1.7-1.2-1.4c-0.2,0-0.4,0.6-0.7,0.7c-0.4,0.1-0.8,0.1-1.1,0c-0.6,0-2.1-0.5-2.6-0.1C8.8,7.4,9.2,7.9,9.7,8
		c0.5,0.1,1.4,0.3,0.9,0.9C10,9.1,8.7,9.1,8.3,9.6C8.1,9.9,8,10.3,8.1,10.5c0.2,0.5,0.8,0.8,1.1,1c0.4,0.3,0.6,0.8,0.7,1.2
		c0.1,0.5-0.3,0.9-0.3,1.4l-0.9,3.5c0.1,0,0.1,0,0.2-0.1c-0.1,0.1-0.1,0.1-0.2,0.2c-0.1,0.5,0.3,2.1-0.3,2.2c-0.2,0-0.4,0.3-0.6,0.3
		c-0.3,0-0.6,0-0.9,0c-0.6-0.1-1.2,0-1.8,0.3c-0.3,0.2-0.5,0.5-0.9,0.6c-0.4,0.1-0.8,0.2-1,0.5C2.7,22,2.4,22.8,2,23.4
		c-0.4,0.6-0.2,0.9-0.3,1.4c-0.2,0.5-0.5,0.9-0.9,1.2c-0.4,0.4-0.7,0.9-0.8,1.3c0,1.1,1.5,1.1,1.7,2.2c0,0.4,0.1,0.9,0.2,1.2
		c0.2,0.2,0.5,0.4,0.8,0.6c0.1,0.1,0.2,0,0.3,0.1c0.3,0.5-0.1,1.1,0.3,1.5c0.4,0.3,0.9,0.1,1.1-0.3l0,0c0.4-0.6,0.3-0.9,0.9-1.1
		c0.5-0.2,1.4-0.4,1.5,0.4c0.1,0.5,0.1,0.9,0,1.3c0,0.4,0.2,1.6,0.8,1.4h0.1c0.4-0.9,0.9-1.6,1.5-2.3L9,21.6z M85.5,29.1
		c-0.1-0.3-0.2-0.5-0.3-0.8c-0.1-0.4-0.1-0.9-0.1-1.2c-0.1-0.5-0.4-0.6-0.6-0.9s0.1-0.5,0.2-0.9c0.3-0.9-1-1.3-1.7-1.6
		c-0.9-0.3-1.9-0.8-2.8-1.2c-0.3-0.2-0.7-0.5-0.9-0.7v12.6c0,1.8-0.4,3.6-1,5.2c0.8-0.5,1.5-1.1,2-1.8c0.5-0.8,0.9-1.5,1.3-2.4
		c0.4-0.7,1.4-1.2,1-2.1v-0.1c0-0.1-0.1-0.1-0.1-0.2v-0.2c0-0.6-0.1-1.3,0.8-1.2c0.4,0,1.3,0.4,1.6,0.1c0.2-0.2,0-0.6,0.1-0.9
		c0.1-0.3,0.3-0.2,0.5-0.3C85.9,30.4,85.7,29.7,85.5,29.1L85.5,29.1z M66.9,47.1C64.5,47,62,46.1,60,44.6c-2.2,1.4-4.7,2.2-7.4,2.3
		c-3.3,0-6.5-1.2-8.9-3.5c-2.3,2.2-5.3,3.4-8.5,3.3c-0.6,0-1.1,0-1.7-0.1c0.2,0.1,0.3,0.3,0.3,0.5c0.1,0.3-0.4,0.3-0.5,0.6
		c-0.2,0.4,0.5,0.6,0.7,0.7c0.3,0.2,0.5,0.5,0.7,0.8c0.4,0.7,0.5,1.4,0.5,2.2c-0.1,0.5-0.4,0.9-0.6,1.3c-0.1,0.3,0,0.8-0.2,1
		c-0.2,0.3-0.8,0.2-0.7,0.5c0.1,0.3,0.5,0.2,0.7,0.4c0.3,0.5,0.4,1,0.1,1.4c-0.2,0.4-0.3,0.5-0.2,0.9c0.1,0.4,0.4,0.5,0.4,0.9
		c0,0.4-0.4,0.7-0.4,0.9c0,0.7,0.5,1.2,1.1,1.2c0.1,0,0.2,0,0.3,0c0.9-0.3,1.9-0.3,2.8-0.1c0.8,0.2,0.4,1,0.5,1.6
		c0.1,0.3,0.2,0.6,0.3,0.9c0.1,0.5,0.1,0.7,0.6,0.9c0.5,0.2,1.3-0.1,1.8,0.5c0.4,0.4,0.5,0.9,0.5,1.4c-0.1,0.7-0.9,1.2-0.2,1.8
		c0.2,0.2,0.6,0.2,0.7,0.4s0.1,0.4,0.2,0.7c0.1,0.3,0.6,0.5,0.9,0.7c1.1,0.7-2.1,3-2.7,3.4c-0.9,0.6-1.6,1.2-2.3,2
		c-0.8,0.7-1.6,1.3-2.5,1.9c-0.5,0.3-0.9,0.6-1.4,0.9c-0.1,0.1-0.9,1.3-0.6,1.3c0.5,0.1,0.9,0.1,1.3-0.1c0.3-0.2,0.4-0.5,0.7-0.7
		c0.4-0.2,0.8,0.2,1,0.3c0.3,0.1,0.6,0.2,0.8,0.3c0.6,0.3,0.4,0.8,0.5,1.3c0.5-0.1,0.9-0.1,1.3,0c0.4,0.1,0.8,0.3,1.1,0.6
		c0.9,0.5,1.7,1,2.4,1.7c0.3,0.3,0.6,0.8,0.6,1.2c0,0.8-1,1.5-0.1,2.2c0.5,0.3,0.6,0,0.9-0.4c0.3-0.4,0.8-0.4,1-0.8
		c0.3-0.4,0.1-0.7,0.5-0.8c0.1-1-0.2-1.5,0.7-2.3c0.5-0.6,1.1-1,1.8-1.3c0.2-0.3,0.4-0.7,0.6-0.9c0.3-0.4,0.6-0.8,0.8-1.1
		c0.4-0.9,1.2-0.9,1.9-1.5c0.7-0.7,0.9-1.2,1.6-1.8c0.6-0.4,1-0.9,1.1-1.7c0.1-1.2-0.2-2.6-0.9-3.6c0.6-0.3,1.1-0.7,1.6-1.1
		c0.5-0.5,0-0.9,0.2-1.5c0.2-0.6,0.8-0.6,1.1-0.8c0.5-0.4,1-0.7,1.5-1.1c0.6-0.3,1-0.9,1.6-1.1c1.3-0.6,2.8-0.9,4.2-0.8
		c1.3,0,2.6,0.1,3.9,0c0.9-0.1,0.1-1,0.6-1.5c0.3-0.3,0.9-0.3,1.1-0.4c0.4-0.1,0.9-0.2,1.1-0.4c0.7-0.4,1-0.9,1.1-1.6
		c0-0.5,0.3-0.9,0.7-0.9c0.5-0.3,0.8-0.5,0.7-1c-0.1-0.6-0.1-1.2,0.1-1.8s0.9-0.7,1-1.2c0.2-0.8-0.5-1.7-0.1-2.4
		c0.1-0.2,0.4-0.3,0.5-0.6c0-0.2,0-0.4-0.1-0.5l0.1-0.1c0.8-0.6,1.2-1.4,1.3-2.4c0-0.9,0-1.9,0.2-2.8c0.2-0.7,0.3-1.3,0.4-2
		c-0.3,0.3-0.6,0.6-0.9,0.9C73.4,45.8,70.2,47.1,66.9,47.1L66.9,47.1z"/>
	<path class="st1" d="M68.7,11.6v10.1c-0.6-0.1-1.2-0.2-1.8-0.2c-2.7,0-5.2,0.9-7.3,2.4l-0.1-0.1c-2.1-1.6-4.7-2.4-7.3-2.3
		c-3.1,0-6.2,1.2-8.4,3.4c-2.3-2.3-5.3-3.5-8.5-3.4c-0.7,0-1.3,0.1-2,0.2v-9.8H22.9V24c-1.8-1.6-4.2-2.6-6.6-2.7L9,21.5v10.9
		c-1.5,1.6-2.3,3.8-2.3,6c0,2.4,0.9,4.6,2.6,6.3c3.2,3.4,8.6,3.5,12.1,0.3c0.1-0.1,0.1-0.1,0.2-0.2l1,2.3h10.9v-0.5h0.1
		c0.6,0.1,1.1,0.1,1.7,0.1c3.1,0,6.2-1.1,8.5-3.3c2.5,2.3,5.6,3.5,8.9,3.5c2.7-0.1,5.2-0.9,7.4-2.3c4.7,3.7,11.6,3.1,15.7-1.3
		c0.3-0.3,0.6-0.6,0.9-0.9c0.7-0.9,1.2-1.8,1.7-2.8c0.8-1.6,1-3.4,1-5.2V11.4L68.7,11.6z"/>
	<path class="st2" d="M40.7,34.1c0,3-2.5,5.6-5.5,5.6s-5.6-2.5-5.6-5.5c0-3,2.5-5.6,5.5-5.6l0,0C38.3,28.6,40.7,31,40.7,34.1z"/>
	<path class="st1" d="M70.2,37.6c-0.9,0.9-2,1.4-3.3,1.4c-1.2,0-2.5-0.5-3.3-1.4c-1.9-1.9-1.9-4.9,0-6.8c0.9-0.9,2.1-1.4,3.3-1.4
		c1.2,0,2.5,0.5,3.3,1.4C72,32.7,72,35.7,70.2,37.6z"/>
	<path class="st3" d="M70.5,13.6v10.6c-1.2-0.5-2.5-0.7-3.8-0.7c-2.8,0-5.5,1.1-7.4,3.1c-2,2-3.1,4.7-3,7.5c0,0.8,0.1,1.4,0.3,2.1
		c-0.9,1.3-2.6,2.1-4.2,2c-1-0.1-2-0.6-2.8-1.3c-1.4-1.6-1.4-4-0.1-5.6c0.6-0.7,1.5-1,2.5-1c0.9,0,1.7,0.4,2.4,0.9l0.9,0.9l0.5-1.2
		c0.6-1.5,1.4-2.8,2.5-4.1L59,26l-0.8-0.6c-1.7-1.3-3.9-2-6.2-1.9c-2.8,0-5.4,1.1-7.4,3.1c-0.4,0.4-0.8,0.8-1,1.2
		c-0.3-0.5-0.7-0.9-1-1.2c-1.9-2-4.6-3.1-7.4-3c-1.3,0-2.7,0.3-4,0.8V14h-6.4v15.7c-3.3-5.7-7.6-6.1-8.5-6.1l-5.3,0.1v7.2h5.2
		c0.7,0.2,1.2,0.6,1.6,1.1c-0.8-0.3-1.5-0.4-2.4-0.4c-1.8,0-3.6,0.7-4.8,2c-1.3,1.3-2,3.1-2,4.9c0,1.9,0.7,3.7,2,5
		c2.6,2.7,6.9,2.8,9.6,0.2c0.1-0.1,0.1-0.1,0.2-0.2c0.8-0.8,1.2-1.7,1.6-2.7l1.9,4.4h7.6v-1c1.2,0.5,2.5,0.8,3.8,0.8
		c2.8,0,5.4-1.1,7.4-3.1c0.4-0.4,0.8-0.8,1-1.2c0.4,0.5,0.7,0.9,1.1,1.3c2.1,2.1,4.9,3.2,7.8,3.2c2.7-0.1,5.2-1,7.4-2.8
		c1.9,1.7,4.4,2.8,6.8,2.8c2.8,0,5.4-1.1,7.4-3.1c2-2,3.1-4.7,3-7.6v-21H70.5z M18.7,41.9c-0.9,0.9-2.1,1.4-3.3,1.4
		c-1.2,0-2.5-0.5-3.3-1.4c-0.9-0.9-1.4-2.2-1.4-3.5c0-1.3,0.5-2.6,1.4-3.5c0.9-0.9,2.1-1.4,3.3-1.4c1.2,0,2.5,0.5,3.3,1.4
		c0.9,0.9,1.4,2.2,1.4,3.4C20.1,39.7,19.7,40.9,18.7,41.9z M75.4,34.4c0,2.4-0.9,4.6-2.5,6.3c-1.5,1.7-3.8,2.6-6.1,2.6
		c-2.8,0-5-1.8-6.3-2.9L60,39.7l-0.7,0.6c-1.9,1.7-4.3,2.7-6.7,2.8c-2.5,0-4.7-0.9-6.5-2.7c-0.7-0.7-1.1-1.4-1.6-2.2l-0.9-1.6
		l-0.9,1.7c-0.4,0.8-0.9,1.5-1.6,2.1c-1.5,1.7-3.7,2.6-6.1,2.6c-1.5,0-2.9-0.4-4.3-1.1l-1.3-0.9v2.3H25c-0.4-0.9-3.3-7.7-3.3-7.7
		v-0.1c-1.9-5.6-4.2-6.6-5.4-6.7h-3.5v-3.5h3.5c0.9,0,5.7,0.5,8.6,8.7l1.6,4.7l0.2-4.9v-18h2.8v11.7l1.4-0.9
		c1.3-0.8,2.8-1.2,4.5-1.1c2.3,0,4.5,0.9,6,2.6c0.7,0.7,1.1,1.4,1.6,2.2l0.9,1.6l0.9-1.6c0.4-0.8,0.9-1.5,1.6-2.2
		c1.6-1.6,3.8-2.6,6.1-2.5c1.5-0.1,2.9,0.3,4.3,0.9c-0.7,0.9-1.1,1.8-1.6,2.8c-0.8-0.5-1.7-0.8-2.6-0.8c-1.4-0.1-2.8,0.5-3.8,1.6
		c-1,1.1-1.6,2.7-1.5,4.2c0,1.5,0.6,2.9,1.6,4.1c1,1,2.4,1.7,3.9,1.9c3.2,0.3,5.3-2.1,6.1-3.1l0.3-0.4l-0.1-0.5
		c-0.2-0.7-0.3-1.4-0.3-2.1c-0.1-2.4,0.9-4.6,2.6-6.2c1.6-1.6,3.8-2.6,6.1-2.5c1.5,0,2.9,0.4,4.3,1.1l1.4,0.8V15.5h2.9L75.4,34.4z"
		/>
	<path class="st3" d="M70.7,30.3c-1-1-2.5-1.7-3.9-1.7c-1.5,0-2.9,0.6-4,1.6c-2.2,2.3-2.2,5.8,0,8.1c1,1.1,2.5,1.7,4,1.7
		s2.9-0.6,3.9-1.7c1-1,1.6-2.6,1.6-4C72.4,32.8,71.8,31.3,70.7,30.3z M69.5,37c-0.7,0.8-1.7,1.1-2.7,1.1c-1,0-2-0.4-2.8-1.1
		c-0.8-0.8-1.1-1.8-1.1-2.8c0-1,0.4-2.1,1.1-2.8c0.7-0.8,1.7-1.1,2.8-1.1c1,0,2,0.4,2.7,1.1C70.9,32.9,70.9,35.4,69.5,37L69.5,37z"
		/>
</g>
</svg>
