<?xml version="1.0" encoding="utf-8"?>
<!-- Generator: Adobe Illustrator 25.3.1, SVG Export Plug-In . SVG Version: 6.00 Build 0)  -->
<svg version="1.1" id="Camada_1" xmlns="http://www.w3.org/2000/svg" xmlns:xlink="http://www.w3.org/1999/xlink" x="0px" y="0px"
	 viewBox="0 0 154 85" style="enable-background:new 0 0 154 85;" xml:space="preserve">
<style type="text/css">
	.st0{fill:#FFFFFF;}
	.st1{fill:#1D1E1C;}
	.st2{fill:#E10717;}
</style>
<g>
	<circle class="st0" cx="13.3" cy="49.8" r="11.8"/>
	<path class="st0" d="M129.3,2.2v22.8c-2.9-1.6-6.2-2.6-9.6-2.6c-5.2-0.1-10.2,2-13.8,5.7c-3.7,3.7-5.9,8.8-5.7,14
		c0,1.6,0.2,3.3,0.7,4.8c-2,2.6-5.7,6.1-10.8,5.5c-2.6-0.2-4.9-1.4-6.8-3.3c-1.9-1.9-2.9-4.4-2.8-7c-0.1-2.7,0.8-5.3,2.7-7.1
		c1.6-1.8,4-2.8,6.3-2.7c2.2,0,4.4,0.9,6.1,2.5c1.3-3.3,3.2-6.2,5.4-9c-3.7-2.8-6.9-3.5-11.5-3.5c-5.2-0.1-10.2,2.1-13.8,5.9
		c-1.4,1.4-2.6,3-3.5,4.8c-0.9-1.8-2.1-3.5-3.5-4.9c-7.5-7.6-19.7-7.7-27.3-0.2c-0.1,0.1-0.1,0.1-0.2,0.2c-3.5,3.5-5.5,8.2-5.6,13.1
		c-6.6-18.4-17.6-19-19.3-19l-8.9,0.1v10.9h8.9c0.8,0.1,5.4,0.7,9.4,12.5l0.1,0.2l9.8,24.4v12.1h9.8V59.6c2.9,1.8,6.3,2.6,9.6,2.6
		c5.2,0.1,10.2-2,13.8-5.7c1.4-1.4,2.6-3,3.5-4.8c0.9,1.9,2.1,3.5,3.5,4.9c4,3.9,9.2,6,14.8,6c5.6-0.2,11-2.5,15.2-6.2
		c3.7,3.6,8.7,6.6,13.9,6.6c5.2,0.1,10.2-2.1,13.7-5.9c3.7-3.7,5.7-8.8,5.6-14V2.2H129.3z M126.5,49.4c-1.8,1.9-4.2,2.9-6.8,2.9
		c-2.6,0-5-1.1-6.8-2.9c-1.9-1.9-2.9-4.4-2.8-7c0-2.6,0.9-5.2,2.8-7c1.8-1.9,4.2-2.9,6.8-2.9s5,1.1,6.8,2.9c1.9,1.9,2.8,4.3,2.8,6.9
		C129.3,45,128.4,47.4,126.5,49.4z"/>
	<path d="M139.2,0h-11.6v21.8c-2.5-0.9-5.2-1.5-7.8-1.4c-5.6-0.1-11.1,2.2-15,6.2c-4.1,4-6.3,9.5-6.2,15.2c0,1.5,0.2,2.9,0.6,4.4
		c-1.5,1.8-4.6,4.7-8.7,4.2c-2.1-0.2-4.2-1.2-5.6-2.8c-1.5-1.5-2.3-3.6-2.3-5.7c-0.1-2.2,0.7-4.3,2.1-5.9c1.3-1.4,3.2-2.2,5.2-2.1
		c1.9,0,3.6,0.7,4.9,2l1.9,1.6l0.9-2.3c1.3-3,2.9-5.9,5-8.4l1.3-1.4l-1.5-1.2c-4.3-3.2-8-3.7-12.5-3.7c-5.6-0.1-11.1,2.2-15,6.3
		c-0.8,0.8-1.6,1.8-2.2,2.7c-0.7-0.9-1.5-1.9-2.3-2.8c-3.9-4.1-9.4-6.4-15-6.3c-5.6-0.1-11.1,2.2-15.1,6.3c-2.3,2.3-4,5.2-5,8.2
		c-7-14.2-16.7-14.8-18.7-14.8H5.6v14.5l10.5-0.1c0.4,0,2.1,0.5,4.3,3.7C13.9,34.4,5.6,36.8,2,43.2S0.4,58,7,61.7
		c6.6,3.7,14.8,1.5,18.5-5c0.7-1.2,1.2-2.3,1.4-3.6l6.9,17v13.6h13.3V61.9c2.5,1.1,5.2,1.5,7.8,1.5c5.6,0.1,11.1-2.2,15-6.3
		c0.8-0.8,1.6-1.8,2.3-2.7c0.7,1.1,1.5,2,2.3,2.8c4.2,4.2,10,6.6,15.9,6.6c5.5-0.2,10.9-2.2,15.2-5.6c2.9,2.6,8,6,14,6
		c5.6,0.1,11.1-2.2,15-6.3c4-4.1,6.2-9.6,6.2-15.3V0H139.2z M22.7,45.8c2.3,4.9,0.2,10.8-4.8,13.1C13,61.2,7.1,59.1,4.8,54.1
		C2.4,49.2,4.5,43.3,9.4,41C14.4,38.8,20.3,40.9,22.7,45.8z M137.4,42.3c0.1,4.8-1.8,9.5-5.2,12.9c-3.2,3.5-7.7,5.4-12.5,5.3
		c-5.7,0-10.4-3.7-12.8-6l-1.2-1.2l-1.3,1.2c-3.9,3.5-8.9,5.5-14,5.7c-5,0-9.8-2-13.5-5.5c-1.2-1.3-2.3-2.8-3.2-4.4l-1.5-2.9l-1.6,3
		c-0.8,1.6-1.9,3-3.2,4.3c-3.3,3.4-7.7,5.4-12.5,5.3c-3,0-6.1-0.8-8.8-2.3l-2.7-1.5v24.1h-6.2V69.4l-10-24.6v-0.1
		c-4-11.5-8.5-13.5-11-13.7H9.1v-7.4l7.1-0.1c1.2,0,11.5,0.4,17.8,18l3,8.8l0.4-9.2c0.1-4.4,1.9-8.8,5.2-11.9
		c3.3-3.4,7.8-5.4,12.5-5.3c4.7-0.1,9.2,1.9,12.4,5.3c1.3,1.3,2.3,2.8,3.3,4.4l1.5,3l1.5-3c0.8-1.6,2-3.2,3.3-4.4
		c3.3-3.4,7.8-5.4,12.5-5.3c3-0.2,6.2,0.6,8.9,2.1c-1.3,1.9-2.5,3.9-3.5,5.9c-1.6-0.9-3.5-1.5-5.4-1.5c-2.9-0.1-5.7,1.1-7.6,3.2
		c-4.3,4.8-4.2,11.9,0.2,16.6c2.1,2.2,4.8,3.5,7.8,3.9c6.4,0.7,10.8-4.1,12.4-6.2l0.5-0.7l-0.2-0.8c-0.5-1.4-0.7-2.9-0.7-4.3
		c-0.1-4.8,1.8-9.4,5.2-12.8c3.3-3.4,7.7-5.3,12.5-5.3c3,0,6.1,0.8,8.7,2.3l2.7,1.5V3.6h6.3L137.4,42.3L137.4,42.3z"/>
	<path class="st1" d="M128.2,33.4c-2.1-2.2-4.9-3.5-8-3.5c-3,0-6,1.2-8.1,3.4c-2.2,2.2-3.4,5.2-3.3,8.2c0,3,1.2,6.1,3.3,8.3
		c4.2,4.4,11.4,4.7,15.8,0.4c0.1-0.1,0.2-0.2,0.4-0.4c2.1-2.2,3.3-5.2,3.3-8.2C131.4,38.5,130.3,35.6,128.2,33.4z M125.6,47.4
		c-1.4,1.5-3.4,2.3-5.5,2.3c-2.1,0-4.1-0.8-5.5-2.3c-1.5-1.5-2.3-3.6-2.3-5.9c0-2.1,0.8-4.2,2.3-5.7c1.4-1.5,3.5-2.3,5.6-2.3
		c2.1,0,4.1,0.8,5.5,2.3c1.5,1.5,2.3,3.6,2.3,5.7C127.9,43.8,127.1,45.9,125.6,47.4L125.6,47.4z"/>
	<circle class="st2" cx="55" cy="42.3" r="11.4"/>
	<path d="M51.9,74l2.1-5.7h1.9L58,74h-1.9l-0.2-0.7h-1.9l-0.2,0.8L51.9,74z M55,70l-0.6,2.1h1.2L55,70z M59.9,72.7
		c0,0.1,0.1,0.4,0.2,0.4c0.1,0.1,0.2,0.1,0.4,0.1c0.2,0,0.6-0.1,0.6-0.4c0-0.7-2.6-0.1-2.6-1.8c0-1.1,1.2-1.4,2-1.4s2,0.2,2.1,1.3
		h-1.5c0-0.1-0.1-0.2-0.1-0.4c-0.1-0.1-0.2-0.1-0.4-0.1c-0.2,0-0.5,0.1-0.5,0.2c0,0.6,2.6,0.2,2.6,1.8c0,0.8-0.7,1.4-2.2,1.4
		c-0.9,0-2-0.2-2.1-1.4L59.9,72.7z M64.8,72.7c0,0.1,0,0.4,0.2,0.4c0.1,0.1,0.2,0.1,0.4,0.1c0.2,0,0.5-0.1,0.5-0.4
		c0-0.7-2.6-0.1-2.6-1.8c0-1.1,1.1-1.4,2-1.4c0.9,0,2,0.2,2.1,1.3h-1.5c0-0.1-0.1-0.2-0.1-0.4c-0.1-0.1-0.2-0.1-0.4-0.1
		c-0.2,0-0.5,0.1-0.5,0.2c0,0.6,2.6,0.2,2.6,1.8c0,0.8-0.7,1.4-2.2,1.4c-0.9,0-2-0.2-2.1-1.4L64.8,72.7z M70.4,69.7
		c1.2,0.1,2.1,1.2,2.1,2.3c-0.1,1.2-1.2,2.1-2.3,2.1C69,74,68.1,73.1,68.1,72c-0.1-1.2,0.8-2.2,2-2.2C70.2,69.7,70.3,69.7,70.4,69.7
		z M69.7,71.9c0,0.8,0.2,1.2,0.7,1.2s0.7-0.4,0.7-1.2s-0.2-1.1-0.7-1.1S69.7,71.4,69.7,71.9z M76.4,71.4c0-0.1-0.1-0.4-0.2-0.5
		c-0.1-0.1-0.2-0.1-0.5-0.1c-0.6,0-0.7,0.7-0.7,1.2c0,0.5,0.2,1.1,0.8,1.1c0.4,0,0.6-0.2,0.7-0.6l0,0h1.6c0,0.6-0.4,1.1-0.8,1.4
		c-0.5,0.2-1.1,0.4-1.5,0.4c-1.2,0.1-2.2-0.7-2.3-2c0-0.1,0-0.1,0-0.2c0-1.2,0.9-2.2,2.1-2.2c0.1,0,0.1,0,0.2,0
		c1.2,0,2.1,0.5,2.3,1.8L76.4,71.4z M79,68.1h1.6v1.2H79V68.1z M79,74v-4.1h1.6v4.2L79,74z M84.5,74l-0.1-0.5
		c-0.5,0.4-0.9,0.6-1.5,0.6c-0.8,0-1.5-0.4-1.5-1.3c0-1.9,2.9-1.1,2.9-1.9c0-0.4-0.4-0.4-0.6-0.4s-0.6,0-0.6,0.4h-1.6
		c0-0.9,0.6-1.4,2.2-1.4c2,0,2.1,0.7,2.1,1.8v2c0,0.2,0,0.5,0.2,0.6V74H84.5z M84.3,72c-0.6,0.2-1.3,0.1-1.3,0.7
		c0,0.2,0.2,0.4,0.5,0.4C84.1,73.2,84.4,72.7,84.3,72L84.3,72z M89.6,71.4c0-0.1-0.1-0.4-0.2-0.5c-0.1-0.1-0.2-0.1-0.5-0.1
		c-0.6,0-0.7,0.7-0.7,1.2c0,0.5,0.2,1.1,0.7,1.1c0.4,0,0.6-0.2,0.7-0.6l0,0h1.6c-0.1,1.1-1.1,1.9-2.1,1.8l-0.2,0.4
		c0.1,0,0.4,0,0.5,0c0.4,0,0.6,0.4,0.6,0.6v0.1c-0.1,0.4-0.6,0.7-0.9,0.6c-0.4,0-0.7-0.1-1.1-0.2l0.1-0.4c0.2,0.1,0.5,0.1,0.7,0.1
		c0.1,0,0.2,0,0.4-0.1c0.2-0.2,0-0.7-0.6-0.4l-0.2-0.2l0.4-0.6c-1.2,0-2.1-0.9-2.1-2.1c0,0,0,0,0-0.1c0-1.2,0.9-2.2,2.1-2.2
		c0.1,0,0.1,0,0.2,0c1.2,0,2.1,0.5,2.3,1.8H89.6z M95.2,74L95,73.5c-0.5,0.4-0.9,0.6-1.5,0.6c-0.8,0-1.5-0.4-1.5-1.3
		c0-1.9,2.9-1.1,2.9-1.9c0-0.4-0.4-0.4-0.6-0.4c-0.2,0-0.6,0-0.6,0.4h-1.5c0-0.9,0.6-1.4,2.2-1.4c2,0,2.1,0.7,2.1,1.8v2
		c0,0.2,0,0.5,0.2,0.6V74H95.2z M96,68.1c-0.1,0.6-0.4,1.1-0.9,1.1c-0.2,0-0.6-0.1-0.8-0.2c-0.6-0.2-0.7,0-0.7,0.2h-0.6
		c0.1-0.5,0.4-1.2,0.9-1.2c0.4,0,0.7,0.1,0.9,0.2c0.2,0.1,0.5,0,0.5-0.2c0,0,0,0,0-0.1L96,68.1z M94.9,72c-0.6,0.2-1.3,0.1-1.3,0.7
		c0,0.2,0.2,0.4,0.5,0.4C94.8,73.2,94.9,72.7,94.9,72L94.9,72z M99.7,69.7c1.2,0.1,2.1,1.2,2.1,2.3c-0.1,1.2-1.2,2.1-2.3,2.1
		c-1.2-0.1-2.1-1.1-2.1-2.1c-0.1-1.2,0.8-2.2,2-2.2C99.5,69.7,99.6,69.7,99.7,69.7z M99,71.9c0,0.8,0.2,1.2,0.7,1.2s0.7-0.4,0.7-1.2
		s-0.2-1.1-0.7-1.1S99,71.4,99,71.9z M105.5,74v-5.7h2.8c1.6,0,2.5,0.8,2.5,2s-0.7,2-2.3,2h-0.9V74C107.4,73.9,105.5,73.9,105.5,74z
		 M108.1,70.8c0.5,0,0.8-0.2,0.8-0.7s-0.6-0.6-1.1-0.6h-0.6v1.3H108.1z M114.1,74l-0.1-0.5c-0.5,0.4-0.9,0.6-1.5,0.6
		c-0.8,0-1.5-0.4-1.5-1.3c0-1.9,2.9-1.1,2.9-1.9c0-0.4-0.4-0.4-0.6-0.4c-0.2,0-0.6,0-0.6,0.4h-1.6c0-0.9,0.6-1.4,2.2-1.4
		c2,0,2.1,0.7,2.1,1.8v2c0,0.2,0,0.5,0.2,0.6V74H114.1z M114,72c-0.6,0.2-1.3,0.1-1.3,0.7c0,0.2,0.2,0.4,0.5,0.4
		C113.8,73.2,114,72.7,114,72L114,72z M121,74h-1.5v-0.6c-0.4,0.5-0.9,0.8-1.5,0.7c-0.9,0-1.5-0.6-1.5-1.8v-2.6h1.6V72
		c0,0.6,0.2,0.8,0.6,0.8s0.6-0.4,0.6-1.1v-2h1.6V74H121z M122,74v-5.7h1.6V74H122z M124.5,68.1h1.6v1.2h-1.6V68.1z M124.5,74v-4.1
		h1.6v4.2L124.5,74z M128.6,72.7c0,0.1,0.1,0.4,0.2,0.4c0.1,0.1,0.2,0.1,0.4,0.1c0.2,0,0.5-0.1,0.5-0.4c0-0.7-2.6-0.1-2.6-1.8
		c0-1.1,1.1-1.4,2-1.4c0.9,0,2,0.2,2.1,1.3h-1.5c0-0.1-0.1-0.2-0.1-0.4c-0.1-0.1-0.2-0.1-0.4-0.1c-0.2,0-0.5,0.1-0.5,0.2
		c0,0.6,2.6,0.2,2.6,1.8c0,0.8-0.7,1.4-2.2,1.4c-0.9,0-2-0.2-2.1-1.4L128.6,72.7z M134.7,74c-2.2,0.1-2.5,0-2.5-1.5v-1.8h-0.6v-0.9
		h0.6v-1.3h1.6v1.3h0.8v0.9h-0.8v1.5c0,0.4,0,0.5,0.5,0.5h0.2L134.7,74L134.7,74z M138.5,74l-0.1-0.5c-0.5,0.4-0.9,0.6-1.5,0.6
		c-0.8,0-1.5-0.4-1.5-1.3c0-1.9,2.9-1.1,2.9-1.9c0-0.4-0.4-0.4-0.6-0.4c-0.2,0-0.6,0-0.6,0.4h-1.6c0-0.9,0.6-1.4,2.2-1.4
		c2,0,2.1,0.7,2.1,1.8v2c0,0.2,0,0.5,0.2,0.6V74H138.5z M138.4,72c-0.6,0.2-1.3,0.1-1.3,0.7c0,0.2,0.2,0.4,0.5,0.4
		C138.1,73.2,138.4,72.7,138.4,72L138.4,72z M55.2,83.6V83c-0.2,0.5-0.8,0.7-1.3,0.7c-1.1,0-1.9-0.8-1.9-1.9c0-0.1,0-0.1,0-0.2
		c0-1.4,0.8-2.3,1.8-2.3c0.5,0,0.9,0.1,1.3,0.6v-2.1h1.6v5.9H55.2z M55.1,81.4c0-0.5-0.1-0.9-0.7-0.9s-0.7,0.5-0.7,0.9
		c0,0.5,0.1,0.9,0.7,0.9S55.1,82,55.1,81.4L55.1,81.4z M59,81.8c0,0.5,0.4,0.8,0.8,0.8l0,0c0.2,0,0.5-0.1,0.6-0.4h1.5
		c-0.4,0.9-1.3,1.5-2.3,1.4c-1.2,0.1-2.2-0.7-2.3-2c0-0.1,0-0.1,0-0.2c0-1.2,0.9-2.2,2.2-2.2h0.1c1.3-0.1,2.3,0.9,2.5,2.2
		c0,0.1,0,0.2,0,0.4H59z M60.5,81c0-0.4-0.4-0.7-0.7-0.7s-0.7,0.2-0.8,0.6V81H60.5z M69.2,80c0-0.5-0.5-0.9-0.9-0.9c0,0,0,0-0.1,0
		c-0.7,0-1.1,0.6-1.1,1.6c0,0.8,0.2,1.5,1.2,1.5c0.6,0,0.9-0.5,0.9-0.9h1.8c-0.1,1.4-1.3,2.5-2.7,2.3c-1.6,0-3-1.3-3.2-2.9
		c0-1.6,1.3-3,2.9-3.2c1.4-0.2,2.7,0.8,2.8,2.2v0.1L69.2,80z M71.7,77.6h1.6v1.2h-1.6V77.6z M71.7,83.5v-4.1h1.6v4.2L71.7,83.5z
		 M74.3,79.4h1.5v0.8c0.1-0.6,0.7-0.9,1.3-0.9h0.2v1.6c-0.1,0-0.2,0-0.4,0c-0.7,0-1.1,0.4-1.1,1.2v1.5h-1.6L74.3,79.4z M82.4,83.6
		h-1.5V83c-0.4,0.5-0.9,0.8-1.5,0.7c-0.9,0-1.5-0.6-1.5-1.8v-2.6h1.6v2.2c0,0.6,0.2,0.8,0.6,0.8s0.6-0.4,0.6-1.1v-2h1.6L82.4,83.6z
		 M83.1,79.4h1.5v0.8c0.1-0.6,0.7-0.9,1.3-0.9h0.2v1.6c-0.1,0-0.2,0-0.4,0c-0.7,0-1.1,0.4-1.1,1.2v1.5h-1.6L83.1,79.4z M88.6,83.7
		c0,0.1,0,0.1,0.1,0.2c0.1,0.1,0.2,0.1,0.4,0.1c0.5,0,0.7-0.2,0.7-0.8v-0.4c-0.4,0.4-0.7,0.5-1.2,0.5c-1.1,0-1.9-0.8-1.9-1.9v-0.1
		c-0.1-1.1,0.6-2,1.6-2.1c0.1,0,0.1,0,0.2,0c0.5,0,0.9,0.2,1.3,0.7v-0.6h1.4v3.4c0,1.3-0.1,2.2-2.2,2.2c-1.5,0-2.1-0.6-2.2-1.2
		L88.6,83.7z M88.4,81.4c0,0.4,0.2,0.8,0.7,0.8s0.7-0.4,0.7-0.8c0-0.5-0.2-0.9-0.7-0.9S88.4,80.9,88.4,81.4L88.4,81.4z M92.2,77.6
		h1.6v1.2h-1.6V77.6z M92.2,83.5v-4.1h1.6v4.2L92.2,83.5z M97,79.3c1.2,0.1,2.1,1.2,2.1,2.3c-0.1,1.2-1.2,2.1-2.3,2.1
		c-1.2-0.1-2.1-1.1-2.1-2.1c-0.1-1.2,0.8-2.2,2-2.2C96.8,79.3,96.9,79.3,97,79.3z M98.7,77.7c-0.1,0.6-0.4,1.1-0.9,1.1
		c-0.2,0-0.6-0.1-0.8-0.2c-0.6-0.2-0.7,0-0.7,0.2h-0.6c0.1-0.5,0.4-1.2,0.9-1.2c0.4,0,0.7,0.1,0.9,0.2c0.2,0.1,0.5,0,0.5-0.2
		c0,0,0,0,0-0.1L98.7,77.7z M96.3,81.4c0,0.8,0.2,1.2,0.7,1.2c0.5,0,0.7-0.4,0.7-1.2c0-0.6-0.2-1.1-0.7-1.1
		C96.6,80.3,96.3,81,96.3,81.4L96.3,81.4z M101.6,81.8c0,0.5,0.4,0.8,0.8,0.8l0,0c0.2,0,0.5-0.1,0.6-0.4h1.5
		c-0.4,0.9-1.3,1.5-2.3,1.4c-1.2,0.1-2.2-0.7-2.3-2c0-0.1,0-0.1,0-0.2c0-1.2,0.9-2.2,2.2-2.2h0.1c1.3-0.1,2.3,0.9,2.5,2.2
		c0,0.1,0,0.2,0,0.4H101.6z M103.1,81c0-0.4-0.4-0.7-0.7-0.7c-0.4,0-0.7,0.2-0.8,0.6V81H103.1z M106.9,82.3c0,0.1,0,0.4,0.2,0.4
		c0.1,0.1,0.2,0.1,0.4,0.1c0.2,0,0.5-0.1,0.5-0.4c0-0.7-2.6-0.1-2.6-1.8c0-1.1,1.1-1.4,2-1.4c0.9,0,2,0.2,2.1,1.3h-1.5
		c0-0.1-0.1-0.2-0.1-0.4c-0.1-0.1-0.2-0.1-0.4-0.1c-0.2,0-0.5,0.1-0.5,0.2c0,0.6,2.6,0.2,2.6,1.8c0,0.8-0.7,1.4-2.2,1.4
		c-0.9,0-2-0.2-2.1-1.4L106.9,82.3z M110.1,82.2v-1.4h2.1v1.4H110.1z M113.1,83.6v-5.7h2.6c1.9,0,3,0.8,3,2.7c0.2,1.4-0.8,2.8-2.3,3
		c-0.2,0-0.5,0-0.7,0H113.1z M114.9,82.3h0.4c0.9,0,1.4-0.5,1.4-1.5s-0.4-1.5-1.4-1.5h-0.4V82.3z M120.7,81.8c0,0.5,0.4,0.8,0.8,0.8
		l0,0c0.2,0,0.5-0.1,0.6-0.4h1.5c-0.4,0.9-1.3,1.5-2.3,1.4c-1.2,0.1-2.2-0.7-2.3-2c0-0.1,0-0.1,0-0.2c0-1.2,0.9-2.2,2.2-2.2h0.1
		c1.3-0.1,2.3,0.9,2.5,2.2c0,0.1,0,0.2,0,0.4H120.7z M122.2,81c0-0.4-0.4-0.7-0.7-0.7c-0.4,0-0.7,0.2-0.8,0.6V81H122.2z M124.4,79.4
		h1.5v0.7c0.2-0.5,0.8-0.8,1.4-0.8c1.1,0,1.6,0.7,1.6,1.8v2.6h-1.6v-2.2c0-0.4-0.1-0.8-0.6-0.8c-0.5,0-0.7,0.4-0.7,0.8v2.2h-1.6
		V79.4z M132.5,83.6c-2.2,0.1-2.5,0-2.5-1.5v-1.8h-0.6v-0.9h0.6v-1.3h1.6v1.3h0.8v0.9h-0.8v1.5c0,0.4,0,0.5,0.5,0.5h0.2L132.5,83.6
		L132.5,83.6z M133.4,77.6h1.6v1.2h-1.6V77.6z M133.4,83.5v-4.1h1.6v4.2L133.4,83.5z M137.4,82.3c0,0.1,0,0.4,0.2,0.4
		c0.1,0.1,0.2,0.1,0.4,0.1c0.2,0,0.5-0.1,0.5-0.4c0-0.7-2.6-0.1-2.6-1.8c0-1.1,1.1-1.4,2-1.4s2,0.2,2.1,1.3h-1.5
		c0-0.1-0.1-0.2-0.1-0.4c-0.1-0.1-0.2-0.1-0.4-0.1c-0.2,0-0.5,0.1-0.5,0.2c0,0.6,2.7,0.2,2.7,1.8c0,0.8-0.7,1.4-2.2,1.4
		c-0.9,0-2-0.2-2.1-1.4L137.4,82.3z M143.6,83.6c-2.2,0.1-2.5,0-2.5-1.5v-1.8h-0.6v-0.9h0.6v-1.3h1.6v1.3h0.8v0.9h-0.8v1.5
		c0,0.4,0,0.5,0.5,0.5h0.2v1.3H143.6z M147.3,83.6l-0.1-0.5c-0.5,0.4-0.9,0.6-1.5,0.6c-0.8,0-1.5-0.4-1.5-1.3c0-1.9,2.9-1.1,2.9-1.9
		c0-0.4-0.4-0.4-0.6-0.4c-0.2,0-0.6,0-0.6,0.4h-1.6c0-0.9,0.6-1.4,2.2-1.4c2,0,2.1,0.7,2.1,1.8v2c0,0.2,0,0.5,0.2,0.6l0,0
		L147.3,83.6L147.3,83.6z M147.1,81.7c-0.6,0.2-1.3,0.1-1.3,0.7c0,0.2,0.2,0.4,0.5,0.4C147,82.8,147.1,82.3,147.1,81.7L147.1,81.7z
		 M151.1,82.3c0,0.1,0,0.4,0.1,0.4c0.1,0.1,0.2,0.1,0.5,0.1c0.2,0,0.5-0.1,0.5-0.4c0-0.7-2.6-0.1-2.6-1.8c0-1.1,1.1-1.4,2-1.4
		s2,0.2,2.1,1.3h-1.5c0-0.1-0.1-0.2-0.1-0.4c-0.1-0.1-0.2-0.1-0.4-0.1c-0.2,0-0.5,0.1-0.5,0.2c0,0.6,2.6,0.2,2.6,1.8
		c0,0.8-0.7,1.4-2.2,1.4c-0.9,0-2-0.2-2.1-1.4L151.1,82.3z"/>
</g>
</svg>
