<?xml version="1.0" encoding="utf-8"?>
<!-- Generator: Adobe Illustrator 25.3.1, SVG Export Plug-In . SVG Version: 6.00 Build 0)  -->
<svg version="1.1" id="Camada_1" xmlns="http://www.w3.org/2000/svg" xmlns:xlink="http://www.w3.org/1999/xlink" x="0px" y="0px"
	 viewBox="0 0 21 20" style="enable-background:new 0 0 21 20;" xml:space="preserve">
<style type="text/css">
	.st0{fill:#A1A1AC;}
</style>
<g>
	<path class="st0" d="M18.1,1.4h-1.6V0.8c0-0.5-0.4-0.8-0.8-0.8c-0.5,0-0.8,0.4-0.8,0.8v0.5h-3.7V0.8c0-0.5-0.4-0.8-0.8-0.8
		S9.5,0.4,9.5,0.8v0.5H5.9V0.8C5.9,0.4,5.5,0,5,0C4.6,0,4.2,0.4,4.2,0.8v0.5H2.6C1.2,1.4,0,2.5,0,4v13.4C0,18.8,1.2,20,2.6,20h15.5
		c1.5,0,2.6-1.2,2.6-2.6V4C20.7,2.5,19.6,1.4,18.1,1.4z M2.6,3h1.6v0.5C4.2,4,4.6,4.3,5,4.3S5.9,4,5.9,3.5V3h3.7v0.5
		c0,0.5,0.4,0.8,0.8,0.8c0.5,0,0.8-0.4,0.8-0.8V3h3.7v0.5c0,0.5,0.4,0.8,0.8,0.8c0.5,0,0.8-0.4,0.8-0.8V3h1.6c0.5,0,1,0.5,1,1v1.6
		H1.6V4C1.6,3.4,2.1,3,2.6,3z M18.1,18.3H2.6c-0.5,0-1-0.5-1-1V7.2h17.5v10.2C19.1,17.9,18.6,18.3,18.1,18.3z"/>
	<path class="st0" d="M6.2,9h-2C3.9,9,3.6,9.3,3.6,9.7v1.5c0,0.4,0.3,0.7,0.7,0.7h2c0.4,0,0.7-0.3,0.7-0.7V9.7C6.9,9.3,6.6,9,6.2,9z
		"/>
	<path class="st0" d="M16.5,9h-2c-0.4,0-0.7,0.3-0.7,0.7v1.5c0,0.4,0.3,0.7,0.7,0.7h2c0.4,0,0.7-0.3,0.7-0.7V9.7
		C17.2,9.3,16.9,9,16.5,9z"/>
	<path class="st0" d="M11.4,9h-2C9,9,8.7,9.3,8.7,9.7v1.5c0,0.4,0.3,0.7,0.7,0.7h2c0.4,0,0.7-0.3,0.7-0.7V9.7C12,9.3,11.7,9,11.4,9z
		"/>
	<path class="st0" d="M6.2,13.7h-2c-0.4,0-0.7,0.3-0.7,0.7v1.5c0,0.4,0.3,0.7,0.7,0.7h2c0.4,0,0.7-0.3,0.7-0.7v-1.5
		C6.9,14,6.6,13.7,6.2,13.7z"/>
	<path class="st0" d="M16.5,13.7h-2c-0.4,0-0.7,0.3-0.7,0.7v1.5c0,0.4,0.3,0.7,0.7,0.7h2c0.4,0,0.7-0.3,0.7-0.7v-1.5
		C17.2,14,16.9,13.7,16.5,13.7z"/>
	<path class="st0" d="M11.4,13.7h-2c-0.4,0-0.7,0.3-0.7,0.7v1.5c0,0.4,0.3,0.7,0.7,0.7h2c0.4,0,0.7-0.3,0.7-0.7v-1.5
		C12,14,11.7,13.7,11.4,13.7z"/>
</g>
</svg>
