<?xml version="1.0" encoding="utf-8"?>
<!-- Generator: Adobe Illustrator 25.3.1, SVG Export Plug-In . SVG Version: 6.00 Build 0)  -->
<svg version="1.1" id="Camada_1" xmlns="http://www.w3.org/2000/svg" xmlns:xlink="http://www.w3.org/1999/xlink" x="0px" y="0px"
	 viewBox="0 0 86 26" style="enable-background:new 0 0 86 26;" xml:space="preserve">
<style type="text/css">
	.st0{fill:#6F6F6E;}
	.st1{fill:#8E1315;}
</style>
<g>
	<path class="st0" d="M52.6,9.3c-0.3,0.4-0.8,0.7-1.4,0.7c-1,0-1.9-0.8-1.9-1.9s0.8-1.9,1.9-1.9c0.5,0,0.9,0.2,1.2,0.6L52.2,7
		c-0.2-0.3-0.6-0.5-1-0.5c-0.9,0.1-1.5,0.8-1.5,1.7c0.1,0.8,0.7,1.4,1.5,1.5c0.4,0,0.8-0.2,1.1-0.6L52.6,9.3z M54.8,6.2
		c1,0,1.9,0.8,1.9,1.9c0,1-0.8,1.9-1.9,1.9c-1,0-1.9-0.8-1.9-1.9c0,0,0,0,0,0c0-1,0.7-1.8,1.7-1.9C54.7,6.2,54.7,6.1,54.8,6.2z
		 M54.8,9.6c0.9,0,1.6-0.6,1.7-1.5c0-0.9-0.6-1.6-1.5-1.7c-0.9,0-1.6,0.6-1.7,1.5c0,0,0,0,0,0.1c-0.1,0.8,0.6,1.5,1.4,1.6
		C54.7,9.6,54.8,9.6,54.8,9.6L54.8,9.6z M57.4,6.3h0.4L60,9.4V6.3h0.3v3.6h-0.4l-2.2-3.2v3.2h-0.3V6.3z M61.5,9.2
		c0.2,0.3,0.5,0.5,0.8,0.5c0.4,0,0.8-0.2,0.8-0.7c0,0,0,0,0,0c0-1-1.9-0.4-1.9-1.8c0-0.6,0.5-1,1.1-1c0,0,0.1,0,0.1,0
		c0.4,0,0.7,0.2,1,0.5l-0.3,0.2c-0.2-0.2-0.4-0.4-0.7-0.4c-0.4,0-0.8,0.2-0.8,0.7c0,1.1,1.9,0.4,1.9,1.8c0,0.6-0.5,1-1,1
		c0,0-0.1,0-0.1,0c-0.5,0-0.9-0.2-1.2-0.5L61.5,9.2z M64.2,6.3h2.2v0.3h-1.9v1.3h1.7v0.3h-1.7v1.4h1.9v0.3h-2.3V6.3z M67.1,6.3h0.3
		v3.3h1.7v0.3h-2L67.1,6.3z M69.8,6.3h0.3v1.6h2V6.3h0.3v3.6h-0.3V8.1h-2v1.7h-0.3V6.3z M75.1,6.2C76.2,6.1,77,7,77,8
		c0,1-0.8,1.9-1.9,1.9c-1,0-1.9-0.8-1.9-1.9c0,0,0,0,0,0c0-1,0.7-1.8,1.7-1.9C75,6.2,75.1,6.1,75.1,6.2z M75.1,9.6
		c0.9,0,1.6-0.6,1.7-1.5c0-0.9-0.6-1.6-1.5-1.7c-0.9,0-1.6,0.6-1.7,1.5c0,0,0,0,0,0.1c-0.1,0.8,0.6,1.5,1.4,1.6
		C75,9.6,75.1,9.6,75.1,9.6L75.1,9.6z M49.4,12h2.2v0.3h-1.8v1.3h1.7v0.3h-1.7v1.7h-0.3V12z M52.3,12h2.2v0.3h-1.9v1.3h1.7v0.3h-1.7
		v1.4h1.9v0.3h-2.3L52.3,12z M55.3,12h1.1c1-0.1,1.9,0.6,2,1.6c0.1,1-0.6,1.9-1.6,2c-0.1,0-0.2,0-0.3,0h-1.1V12z M55.6,15.3h0.7
		c1,0,1.7-0.5,1.7-1.5s-0.7-1.5-1.7-1.5h-0.7V15.3z M59.1,12h2.2v0.3h-1.9v1.3h1.7v0.3h-1.7v1.4h1.9v0.3h-2.3V12z M62.1,12h0.9
		c0.3,0,1.3,0,1.3,0.9c0,0.5-0.4,0.9-0.9,0.9c0,0,0,0,0,0l1,1.7h-0.4l-1-1.7h-0.6v1.7h-0.3L62.1,12z M62.5,13.5h0.7
		c0.7,0,0.8-0.4,0.8-0.6c0-0.3-0.1-0.6-0.8-0.6h-0.7V13.5z M66.4,12h0.3l1.5,3.6h-0.4l-0.4-1h-1.9l-0.4,1h-0.4L66.4,12z M66.6,12.3
		l-0.8,2h1.6L66.6,12.3z M68.6,12H69v3.3h1.7v0.3h-2L68.6,12z M72.1,12h1.1c1-0.1,1.9,0.6,2,1.6c0.1,1-0.6,1.9-1.6,2
		c-0.1,0-0.2,0-0.3,0h-1.1V12z M72.5,15.3h0.7c1,0,1.7-0.5,1.7-1.5s-0.7-1.5-1.7-1.5h-0.7V15.3z M75.9,12h2.2v0.3h-1.9v1.3H78v0.3
		h-1.7v1.4h1.9v0.3h-2.3V12z"/>
	<path class="st1" d="M42.3,11.9l-0.4,2c-1.4,6.6-6.7,11.5-13,11.5c-3.3,0-6.5-1.4-8.9-3.8l2.6-13.4H26c0.2,0,0.4,0.2,0.4,0.4l0,0
		c0,0.1,0,0.2-0.1,0.3c-1.3,1.3-2.2,3.1-2.5,4.9c-0.1,0.6-0.2,1.2-0.2,1.9c-0.1,1.3,0.4,2.7,1.3,3.7c1.2,1.4,3,2,5.5,2
		c2.3,0.1,4.5-0.6,6.3-2c1.7-1.4,2.9-3.4,3.2-5.5c0.1-0.6,0.2-1.2,0.2-1.9c0.1-1.3-0.4-2.7-1.3-3.7c-1.2-1.3-3-2-5.5-2
		c-1,0.1-2.1,0.2-3.1,0.4c-2.4,0.1-4.9,0.1-7.3,0l0.4-1.8c0.1-0.9,0.5-1.8,1-2.5c0.4-0.5,1.1-0.8,1.7-0.8c0.5-0.1,1,0.1,1.4,0.5
		c0.2,0.3,0.4,0.8,0.3,1.2c0,0.1,0,0.3,0,0.4h1.5l0.6-3.1c-0.7-0.2-1.4-0.3-2.1-0.4C26.9,0.1,26.2,0,25.5,0
		c-1.7-0.1-3.3,0.3-4.7,1.2c-1.2,0.9-2,2.2-2.2,3.6l0,0.2c-0.2,0.9-0.9,1.6-1.8,1.6h-0.8c-0.8,0-1.6,0-2.3,0c-0.4,0-0.8,0-1.1-0.1
		c-1-0.1-1.9-0.3-3-0.3c-2.2-0.1-4.4,0.6-6.2,2c-1.7,1.4-2.8,3.4-3.2,5.6C0.1,14.4,0,15.1,0,15.7c-0.1,1.3,0.4,2.6,1.2,3.6
		c1.1,1.3,3,2,5.5,2c1.6,0.1,3.2-0.4,4.5-1.2c1.3-0.9,2.3-2.2,2.8-3.7h-2.2c-0.3,1-0.8,1.8-1.6,2.5c-0.7,0.6-1.6,0.9-2.5,0.9
		c-1.2,0-2-0.5-2.4-1.4c-0.2-0.5-0.3-1.1-0.3-1.7c0-1,0.1-2,0.3-2.9c0.5-2.2,1-3.8,1.8-4.7C8,8.2,9.2,7.7,10.4,7.8
		C11.2,7.7,12,8,12.6,8.6c0.3,0.5,0.5,1,0.5,1.5v1.2h1.5l0.3-1.7C15,9.3,15.2,9,15.5,8.7c0.3-0.3,0.7-0.4,1.1-0.5h1.3l-1.5,7.6
		L15.8,19c4.8,7.2,14.6,9.2,21.8,4.4c3.3-2.2,5.7-5.6,6.6-9.5l0.4-2H42.3z M29.1,13.8c0.5-2.3,1-3.9,1.5-4.7
		c0.5-0.8,1.4-1.3,2.4-1.3c0.9-0.1,1.7,0.4,1.9,1.3C35,9.4,35,9.8,35,10.2c0,1.2-0.2,2.4-0.4,3.6c-0.5,2.3-1,3.9-1.5,4.7
		c-0.5,0.8-1.4,1.3-2.4,1.3c-0.9,0.1-1.7-0.5-1.9-1.3c-0.1-0.4-0.1-0.8-0.1-1.2C28.7,16.1,28.8,15,29.1,13.8z"/>
	<path class="st0" d="M51.2,17.7c1,0,1.9,0.8,1.9,1.9c0,1-0.8,1.9-1.9,1.9c-1,0-1.9-0.8-1.9-1.9c0,0,0,0,0,0c0-1,0.7-1.8,1.7-1.9
		C51.1,17.7,51.2,17.7,51.2,17.7z M51.2,21.1c0.9,0,1.6-0.6,1.7-1.5c0-0.9-0.6-1.6-1.5-1.7c-0.9,0-1.6,0.6-1.7,1.5c0,0,0,0,0,0.1
		c0,0.8,0.6,1.5,1.4,1.6C51.1,21.1,51.2,21.1,51.2,21.1L51.2,21.1z M53.5,17.7h1.1c1-0.1,1.9,0.6,2,1.6c0.1,1-0.6,1.9-1.6,2
		c-0.1,0-0.2,0-0.3,0h-1.1V17.7z M53.8,21h0.7c1,0,1.7-0.5,1.7-1.5s-0.7-1.5-1.7-1.5h-0.7L53.8,21z M58.7,17.7c1,0,1.9,0.8,1.9,1.9
		c0,1-0.8,1.9-1.9,1.9c-1,0-1.9-0.8-1.9-1.9c0,0,0,0,0,0c0-1,0.7-1.8,1.7-1.9C58.6,17.7,58.7,17.7,58.7,17.7z M58.7,21.1
		c0.9,0,1.6-0.7,1.6-1.5c0-0.9-0.7-1.6-1.5-1.6c-0.9,0-1.6,0.7-1.6,1.5c0,0,0,0,0,0.1c0,0.8,0.6,1.5,1.4,1.6
		C58.6,21.1,58.7,21.1,58.7,21.1L58.7,21.1z M61.3,17.7h0.4l2.2,3.2v-3.2h0.3v3.6h-0.4l-2.2-3.2v3.2h-0.3V17.7z M65.9,18.1h-1.3
		v-0.3h2.8v0.3h-1.2v3.3h-0.3L65.9,18.1z M69.3,17.7c1,0,1.9,0.8,1.9,1.9c0,1-0.8,1.9-1.9,1.9c-1,0-1.9-0.8-1.9-1.9c0,0,0,0,0,0
		c0-1,0.7-1.8,1.7-1.9C69.2,17.7,69.2,17.7,69.3,17.7z M69.3,21.1c0.9,0,1.6-0.6,1.7-1.5c0-0.9-0.6-1.6-1.5-1.7
		c-0.9,0-1.6,0.6-1.7,1.5c0,0,0,0,0,0.1c0,0.8,0.6,1.5,1.4,1.6C69.2,21.1,69.3,21.1,69.3,21.1L69.3,21.1z M71.5,17.7h0.3V21h1.7v0.3
		h-2L71.5,17.7z M75.8,17.7c1,0,1.9,0.8,1.9,1.9c0,1-0.8,1.9-1.9,1.9c-1,0-1.9-0.8-1.9-1.9c0,0,0,0,0,0c0-1,0.7-1.8,1.7-1.9
		C75.7,17.7,75.7,17.7,75.8,17.7z M75.8,21.1c0.9,0,1.6-0.6,1.7-1.5c0-0.9-0.6-1.6-1.5-1.7c-0.9,0-1.6,0.6-1.7,1.5c0,0,0,0,0,0.1
		c0,0.8,0.6,1.5,1.4,1.6C75.7,21.1,75.8,21.1,75.8,21.1L75.8,21.1z M81.2,21.1c-0.4,0.2-0.9,0.3-1.4,0.3c-1,0-1.9-0.8-1.9-1.9
		c0-1,0.8-1.9,1.9-1.9c0.5,0,1,0.2,1.3,0.5l-0.2,0.3c-0.3-0.3-0.7-0.4-1-0.4c-0.9,0.1-1.5,0.8-1.5,1.7c0.1,0.8,0.7,1.4,1.5,1.5
		c0.4,0,0.7-0.1,1-0.2v-1.2H80v-0.3h1.2L81.2,21.1z M81.9,17.7h0.3v3.6h-0.3V17.7z M84.1,17.7h0.3l1.5,3.6h-0.4l-0.4-1h-1.9l-0.4,1
		h-0.4L84.1,17.7z M84.3,18.1l-0.8,2h1.7L84.3,18.1z"/>
</g>
</svg>
