<?xml version="1.0" encoding="utf-8"?>
<!-- Generator: Adobe Illustrator 25.3.1, SVG Export Plug-In . SVG Version: 6.00 Build 0)  -->
<svg version="1.1" id="Camada_1" xmlns="http://www.w3.org/2000/svg" xmlns:xlink="http://www.w3.org/1999/xlink" x="0px" y="0px"
	 viewBox="0 0 42 16.6" style="enable-background:new 0 0 42 16.6;" xml:space="preserve">
<style type="text/css">
	.st0{fill:#FFFFFF;}
	.st1{fill:url(#SVGID_1_);}
	.st2{fill:url(#SVGID_2_);}
	.st3{fill:url(#SVGID_3_);}
	.st4{fill:url(#SVGID_4_);}
	.st5{fill:url(#SVGID_5_);}
	.st6{fill:url(#SVGID_6_);}
</style>
<g>
	<g>
		<g>
			<path class="st0" d="M19.2,6.4h-0.8c-1,0-1.9,0.6-1.9,1.9c0,1.3,0.8,1.9,1.9,1.9h0.8v1.8h-1.1c-2,0-3.5-1.7-3.5-3.7
				c0-2.1,1.5-3.7,3.5-3.7h1.1V6.4z"/>
			<path class="st0" d="M22.1,12.1h-1.9V4.6h1.9V12.1z"/>
			<path class="st0" d="M26.8,12.2c-2.1,0-3.8-1.8-3.8-3.9c0-2.1,1.7-3.9,3.8-3.9c2.1,0,3.8,1.8,3.8,3.9
				C30.6,10.5,28.9,12.2,26.8,12.2z M26.8,6.4c-1.1,0-1.9,0.9-1.9,2c0,1.1,0.8,2,1.9,2c1.1,0,1.9-0.9,1.9-2
				C28.7,7.3,27.9,6.4,26.8,6.4z"/>
			<path class="st0" d="M35.5,6.4h-1.9c-0.2,0-0.4,0.1-0.4,0.3c0,0.6,2.8,1.4,2.8,3.2c0,1-0.2,2.2-2.6,2.2h-2v-1.7h1.9
				c0.4,0,0.7-0.1,0.7-0.4c0-0.8-2.7-1.4-2.7-3.2c0-1.6,1.1-2.1,2.3-2.1h1.9V6.4z"/>
			<path class="st0" d="M36.8,12.2V7.3c0-1.8,1.1-2.8,2.7-2.8c1.4,0,2.5,1,2.5,2.5c0,1.6-1,2.6-2.6,2.6H39V8c0.7,0,1.2-0.1,1.2-0.9
				c0-0.4-0.3-0.8-0.8-0.8c-0.4,0-0.7,0.3-0.7,0.7v5.1H36.8z"/>
		</g>
	</g>
	<linearGradient id="SVGID_1_" gradientUnits="userSpaceOnUse" x1="2.333357e-02" y1="5.3563" x2="10.1623" y2="8.954">
		<stop  offset="0" style="stop-color:#55AEFF"/>
		<stop  offset="0.9996" style="stop-color:#2B3880"/>
	</linearGradient>
	<path class="st1" d="M11.5,0.9c1.1,0.4,2.1,1,3,1.8c-1.9-2.1-4.7-3.2-7.7-2.7C2.3,1-0.7,5.3,0.1,9.8c0.7,3.8,3.8,6.5,7.4,6.8
		c-1.2-0.2-2.4-0.7-3.4-1.4c-0.2-0.5-0.5-1.7-0.7-3.4c1.2,0.5,2.5,0.7,3.5,0.7c0.1,2.2,0.5,3.6,0.5,3.6c-0.1-1.3-0.2-2.5-0.1-3.6
		c1.7,0,2.9-0.5,2.9-0.5c-1.1,0.2-2,0.2-2.9,0.1c0.1-1.2,0.2-2.3,0.4-3.3c1.2,0,2-0.1,2-0.1C9.1,8.6,8.4,8.5,7.8,8.4
		c0.3-1.2,0.6-2.2,0.9-3.1c2.7,0.3,4.9-0.6,4.9-0.6C11.8,5,10.3,5,9,4.7C10.2,2.2,11.5,1,11.5,0.9z M7.4,0.6c0.3,0,0.5-0.1,0.8-0.1
		C7.4,0.9,6.2,1.6,5,2.9C4.6,2.5,4.3,2.1,4.2,2C5.1,1.3,6.2,0.8,7.4,0.6z M3.3,2.7c0.4,0.4,0.7,0.7,1.1,1c-0.5,0.8-1,1.7-1.3,2.9
		C2.2,5.9,1.8,5.2,1.7,4.9C2.1,4.1,2.6,3.3,3.3,2.7z M2.8,10.5c-1-0.7-1.7-1.5-2-1.9c0-0.9,0.1-1.8,0.4-2.6c0.6,0.6,1.1,1,1.7,1.4
		C2.8,8.3,2.7,9.4,2.8,10.5z M3.6,14.7c-1.3-1.1-2.2-2.6-2.6-4.4c0.6,0.5,1.3,0.9,1.9,1.3C3,12.5,3.2,13.6,3.6,14.7z M7,12.1
		c-1.5-0.2-2.6-0.6-3.6-1.2c-0.1-1,0-2.1,0.2-3.2c1.3,0.7,2.6,0.9,3.7,1C7,10,6.9,11.1,7,12.1z M7.3,8.3C5.7,8,4.5,7.5,3.7,6.9
		c0.2-1,0.7-2,1.3-2.9C6,4.7,7.1,5.1,8.2,5.3C7.8,6.3,7.5,7.3,7.3,8.3z M8.5,4.6c-1.3-0.3-2.3-0.8-3-1.3c0.9-1.1,2.1-2,3.8-2.8
		c0.6,0,1.2,0.1,1.8,0.3C9.9,2,9.1,3.3,8.5,4.6z"/>
	<g>
		<g>
			<linearGradient id="SVGID_2_" gradientUnits="userSpaceOnUse" x1="14.7209" y1="14.9387" x2="41.8694" y2="14.9387">
				<stop  offset="0" style="stop-color:#2B3880;stop-opacity:0"/>
				<stop  offset="0.25" style="stop-color:#55AEFF"/>
				<stop  offset="0.75" style="stop-color:#55AEFF"/>
				<stop  offset="0.9996" style="stop-color:#2B3880;stop-opacity:0"/>
			</linearGradient>
			<path class="st2" d="M21.1,14.3h-0.2v0h-0.5c0,0,0,0,0,0c0,0,0,0,0,0c0,0,0,0,0,0c0,0,0,0,0,0v0.4h0v0h0v0.2h-0.1v0.5
				c0,0.1,0,0.1,0.1,0.1c0,0,0.1,0.1,0.1,0.1h0.2v0h0.5c0,0,0,0,0,0c0,0,0,0,0,0c0,0,0,0,0,0c0,0,0,0,0,0v-0.4h0.1v0h-0.1V15h0.1
				v-0.5c0-0.1,0-0.1-0.1-0.1S21.2,14.3,21.1,14.3z"/>
			<linearGradient id="SVGID_3_" gradientUnits="userSpaceOnUse" x1="14.7209" y1="14.4171" x2="41.8694" y2="14.4171">
				<stop  offset="0" style="stop-color:#2B3880;stop-opacity:0"/>
				<stop  offset="0.25" style="stop-color:#55AEFF"/>
				<stop  offset="0.75" style="stop-color:#55AEFF"/>
				<stop  offset="0.9996" style="stop-color:#2B3880;stop-opacity:0"/>
			</linearGradient>
			<rect x="27.9" y="14" class="st3" width="0" height="0.8"/>
			<linearGradient id="SVGID_4_" gradientUnits="userSpaceOnUse" x1="14.7209" y1="14.5377" x2="41.8694" y2="14.5377">
				<stop  offset="0" style="stop-color:#2B3880;stop-opacity:0"/>
				<stop  offset="0.25" style="stop-color:#55AEFF"/>
				<stop  offset="0.75" style="stop-color:#55AEFF"/>
				<stop  offset="0.9996" style="stop-color:#2B3880;stop-opacity:0"/>
			</linearGradient>
			<rect x="30.4" y="14" class="st4" width="0" height="1.1"/>
			<linearGradient id="SVGID_5_" gradientUnits="userSpaceOnUse" x1="14.7209" y1="14.8564" x2="41.8694" y2="14.8564">
				<stop  offset="0" style="stop-color:#2B3880;stop-opacity:0"/>
				<stop  offset="0.25" style="stop-color:#55AEFF"/>
				<stop  offset="0.75" style="stop-color:#55AEFF"/>
				<stop  offset="0.9996" style="stop-color:#2B3880;stop-opacity:0"/>
			</linearGradient>
			<rect x="19.9" y="14.3" class="st5" width="0" height="1.1"/>
		</g>
		<linearGradient id="SVGID_6_" gradientUnits="userSpaceOnUse" x1="14.7479" y1="14.9025" x2="42" y2="14.9025">
			<stop  offset="0" style="stop-color:#2B3880;stop-opacity:0"/>
			<stop  offset="0.25" style="stop-color:#55AEFF"/>
			<stop  offset="0.75" style="stop-color:#55AEFF"/>
			<stop  offset="0.9996" style="stop-color:#2B3880;stop-opacity:0"/>
		</linearGradient>
		<path class="st6" d="M14.7,13.3v3.3H42v-3.3H14.7z M21.9,15L21.9,15l-0.1,0.5h0.1c0,0.1-0.1,0.3-0.2,0.4c-0.1,0.1-0.2,0.1-0.4,0.1
			h-0.7h-0.4c-0.1,0-0.2,0-0.3-0.1h0.2v0h-0.2c-0.1-0.1-0.1-0.1-0.2-0.2c0-0.1-0.1-0.2-0.1-0.2v-0.6h0.1v-0.1h0.1v0h-0.1v-0.3h-0.1
			c0-0.1,0.1-0.3,0.2-0.4c0.1-0.1,0.2-0.1,0.4-0.1h1.1c0.1,0,0.2,0,0.3,0.1h-0.1v0h0.2c0.1,0.1,0.1,0.1,0.2,0.2
			c0,0.1,0.1,0.2,0.1,0.2V15z M23.1,14.6v0.6H23v0.3h0.1V16h-0.5v-0.5h-0.1v-0.3h0.1v-1.2h0.5V14l0.9,0.7h-0.7L23.1,14.6z
			 M25.3,15.2h-0.1v0.3h0.1V16h-0.5v-0.1l-0.6-0.4h-0.1l-0.3-0.2H24l-0.6-0.4h0.7l0.6,0.4v0h0.1v-0.8h-0.2v-0.2h0.2v-0.2h0.5V15.2z
			 M26.8,15h-0.6v0H26v0h-0.1v-0.2h0.6v0h0.1v0h0.2V15z M29.6,16h-0.9v-0.1h-0.1V16h-1.3v-0.1h0.1v-0.3h-0.1v-0.8h0.1V14h0.1v-0.1
			H28v1.6h1.6V16z M30.9,15.2h-0.1v0.3h0.1V16h-0.5v-0.5h-0.1v-0.3h0.1v-1.3h0.5V15.2z M32.1,14.6v0.6h-0.1v0.3h0.1V16h-0.5v-0.5
			h-0.1v-0.3h0.1v-1.2h0.5V14l0.9,0.7h-0.7L32.1,14.6z M34.3,15.2h-0.1v0.3h0.1V16h-0.5v-0.1l-0.6-0.4h-0.1l-0.3-0.2h0.1l-0.6-0.4
			H33l0.6,0.4v0h0.1v-0.8h-0.2v-0.2h0.2v-0.2h0.5V15.2z M37,14.3h-1.6v0.3H37v0.4h-1.6v0.3h0.1v0.1H37V16h-2.1v-0.5h-0.1v-0.5h0.1
			v-1h0.5v-0.1h0.4v0.1H37V14.3z"/>
	</g>
</g>
</svg>
