<?xml version="1.0" encoding="utf-8"?>
<!-- Generator: Adobe Illustrator 25.3.1, SVG Export Plug-In . SVG Version: 6.00 Build 0)  -->
<svg version="1.1" id="Camada_1" xmlns="http://www.w3.org/2000/svg" xmlns:xlink="http://www.w3.org/1999/xlink" x="0px" y="0px"
	 viewBox="0 0 21 21" style="enable-background:new 0 0 21 21;" xml:space="preserve">
<style type="text/css">
	.st0{fill:#55AEFF;}
</style>
<path class="st0" d="M17.9,3.1C16,1.2,13.4,0,10.5,0C7.6,0,5,1.2,3.1,3.1C1.2,5,0,7.6,0,10.5c0,2.9,1.2,5.5,3.1,7.4
	C5,19.8,7.6,21,10.5,21c2.9,0,5.5-1.2,7.4-3.1c1.9-1.9,3.1-4.5,3.1-7.4C21,7.6,19.8,5,17.9,3.1z M13.1,9.6L13,10.5h-1.7
	c0,2.6,0,5.8,0,5.8H9c0,0,0-3.2,0-5.8H7.8V9.6V8.2h1.2v-1c0-1,0.4-2.4,2.4-2.4h1.8v2c0,0-1.1,0-1.3,0c-0.2,0-0.5,0.1-0.5,0.6v0.9
	h1.8L13.1,9.6z"/>
</svg>
