<?xml version="1.0" encoding="utf-8"?>
<!-- Generator: Adobe Illustrator 25.3.1, SVG Export Plug-In . SVG Version: 6.00 Build 0)  -->
<svg version="1.1" id="Camada_1" xmlns="http://www.w3.org/2000/svg" xmlns:xlink="http://www.w3.org/1999/xlink" x="0px" y="0px"
	 viewBox="0 0 21 21" style="enable-background:new 0 0 21 21;" xml:space="preserve">
<style type="text/css">
	.st0{fill:#55AEFF;}
</style>
<g>
	<path class="st0" d="M13.5,5.6h-6c-1.1,0-1.9,0.9-1.9,1.9v6c0,1.1,0.9,1.9,1.9,1.9h6c1.1,0,1.9-0.9,1.9-1.9v-6
		C15.4,6.4,14.6,5.6,13.5,5.6z M10.5,14.3c-2.1,0-3.8-1.7-3.8-3.8s1.7-3.8,3.8-3.8s3.8,1.7,3.8,3.8S12.6,14.3,10.5,14.3z M14.1,7.6
		c-0.4,0-0.7-0.3-0.7-0.7s0.3-0.7,0.7-0.7s0.7,0.3,0.7,0.7S14.5,7.6,14.1,7.6z"/>
	<path class="st0" d="M10.5,7.7c-1.6,0-2.8,1.3-2.8,2.8s1.3,2.8,2.8,2.8c1.6,0,2.8-1.3,2.8-2.8S12.1,7.7,10.5,7.7z"/>
	<path class="st0" d="M17.9,3.1C16,1.2,13.4,0,10.5,0C7.6,0,5,1.2,3.1,3.1C1.2,5,0,7.6,0,10.5c0,2.9,1.2,5.5,3.1,7.4
		C5,19.8,7.6,21,10.5,21c2.9,0,5.5-1.2,7.4-3.1c1.9-1.9,3.1-4.5,3.1-7.4C21,7.6,19.8,5,17.9,3.1z M16.3,13.5c0,1.5-1.3,2.8-2.8,2.8
		h-6c-1.5,0-2.8-1.3-2.8-2.8v-6c0-1.5,1.3-2.8,2.8-2.8h6c1.5,0,2.8,1.3,2.8,2.8V13.5z"/>
</g>
</svg>
