<?xml version="1.0" encoding="utf-8"?>
<!-- Generator: Adobe Illustrator 25.3.1, SVG Export Plug-In . SVG Version: 6.00 Build 0)  -->
<svg version="1.1" id="Camada_1" xmlns="http://www.w3.org/2000/svg" xmlns:xlink="http://www.w3.org/1999/xlink" x="0px" y="0px"
	 viewBox="0 0 17.3 15" style="enable-background:new 0 0 17.3 15;" xml:space="preserve">
<style type="text/css">
	.st0{fill:#FFFFFF;}
</style>
<g>
	<path class="st0" d="M13.1,7.4c1,0,2.2-1.4,2.2-2.8c0-1.4-1-2.3-2.2-2.3s-2.2,0.9-2.2,2.3C10.9,6,12,7.4,13.1,7.4z"/>
	<path class="st0" d="M6.4,7.9c1.6,0,3.3-2.1,3.3-4.3C9.7,1.4,8.2,0,6.4,0C4.5,0,3.1,1.4,3.1,3.6C3.1,5.8,4.7,7.9,6.4,7.9z"/>
	<path class="st0" d="M12.3,11.6c-0.4-0.8-0.7-1.2-1.2-1.8C10.6,9.4,9.2,8.7,8.3,9C7.6,9.1,7.5,9.6,6.4,9.6S5.2,9.1,4.5,9
		C3.6,8.7,2.1,9.4,1.7,9.9c-0.5,0.6-0.8,1-1.2,1.8c-0.2,0.4-0.6,1.6-0.4,2.1c0.3,0.6,1.1,0.9,3.3,1.2c1.3,0.2,3,0.2,3,0.2
		s1.6,0,3-0.2c2.2-0.3,3-0.5,3.3-1.2C12.9,13.2,12.5,12,12.3,11.6z"/>
	<g>
		<path class="st0" d="M17,9.8c-0.3-0.5-0.5-0.8-0.8-1.1c-0.3-0.3-1.2-0.8-1.8-0.6c-0.5,0.1-0.5,0.4-1.2,0.4c-0.8,0-0.8-0.3-1.2-0.4
			c-0.5-0.2-1.2,0.1-1.6,0.4c0.6,0.2,1.1,0.6,1.4,0.9c0.6,0.6,1,1.1,1.4,2c0.1,0.2,0.2,0.4,0.3,0.7c0.4,0,1.1,0,1.7-0.1
			c1.4-0.2,2-0.3,2.2-0.8C17.4,10.8,17.1,10,17,9.8z"/>
	</g>
</g>
</svg>
