<?xml version="1.0" encoding="utf-8"?>
<!-- Generator: Adobe Illustrator 25.3.1, SVG Export Plug-In . SVG Version: 6.00 Build 0)  -->
<svg version="1.1" id="Camada_1" xmlns="http://www.w3.org/2000/svg" xmlns:xlink="http://www.w3.org/1999/xlink" x="0px" y="0px"
	 viewBox="0 0 21 20" style="enable-background:new 0 0 21 20;" xml:space="preserve">
<style type="text/css">
	.st0{fill:#A1A1AC;}
</style>
<g>
	<path class="st0" d="M10.5,20C4.7,20,0,15.5,0,10S4.7,0,10.5,0c0.5,0,0.9,0.4,0.9,0.8S11,1.7,10.5,1.7c-4.8,0-8.7,3.7-8.7,8.3
		s3.9,8.3,8.7,8.3s8.7-3.7,8.7-8.3c0-0.5,0.4-0.8,0.9-0.8c0.5,0,0.9,0.4,0.9,0.8C21,15.5,16.3,20,10.5,20z M10.5,1.7
		c-0.2,0-0.5-0.1-0.6-0.2C9.7,1.3,9.6,1,9.6,0.8s0.1-0.4,0.3-0.6c0.3-0.3,0.9-0.3,1.2,0c0.2,0.2,0.3,0.4,0.3,0.6s-0.1,0.4-0.3,0.6
		C11,1.6,10.7,1.7,10.5,1.7z M18.6,6.8c-0.2-0.4,0-0.9,0.5-1.1c0.4-0.2,1,0,1.1,0.5c0.2,0.4,0,0.9-0.5,1.1c-0.1,0-0.2,0.1-0.3,0.1
		C19,7.3,18.7,7.1,18.6,6.8z M16.7,4.1c-0.3-0.3-0.3-0.9,0-1.2c0.3-0.3,0.9-0.3,1.2,0c0.3,0.3,0.3,0.9,0,1.2
		c-0.2,0.2-0.4,0.2-0.6,0.2C17.1,4.4,16.9,4.3,16.7,4.1z M13.9,2.3c-0.4-0.2-0.7-0.7-0.5-1.1s0.7-0.6,1.1-0.5
		C15,0.9,15.2,1.4,15,1.9c-0.1,0.3-0.5,0.5-0.8,0.5C14.1,2.4,14,2.3,13.9,2.3z M20.1,10.8c-0.2,0-0.5-0.1-0.6-0.2
		c-0.2-0.2-0.3-0.4-0.3-0.6s0.1-0.4,0.3-0.6c0.3-0.3,0.9-0.3,1.2,0C20.9,9.6,21,9.8,21,10s-0.1,0.4-0.3,0.6
		C20.6,10.7,20.4,10.8,20.1,10.8z M14,12.5c-0.1,0-0.3,0-0.4-0.1l-3.5-1.7c-0.3-0.1-0.5-0.4-0.5-0.7V4.2c0-0.5,0.4-0.8,0.9-0.8
		s0.9,0.4,0.9,0.8v5.3l3,1.4c0.4,0.2,0.6,0.7,0.4,1.1C14.6,12.3,14.3,12.5,14,12.5z"/>
</g>
</svg>
