<?xml version="1.0" encoding="utf-8"?>
<!-- Generator: Adobe Illustrator 25.3.1, SVG Export Plug-In . SVG Version: 6.00 Build 0)  -->
<svg version="1.1" id="Camada_1" xmlns="http://www.w3.org/2000/svg" xmlns:xlink="http://www.w3.org/1999/xlink" x="0px" y="0px"
	 viewBox="0 0 60 60" style="enable-background:new 0 0 60 60;" xml:space="preserve">
<style type="text/css">
	.st0{fill:#C4C4CE;}
	.st1{fill:#FFFFFF;}
</style>
<g>
	<circle class="st0" cx="30" cy="30" r="30"/>
	<g>
		<path class="st1" d="M30,19.9c2,0,3.7-1.7,3.7-3.7s-1.7-3.7-3.7-3.7s-3.7,1.7-3.7,3.7C26.3,18.3,28,19.9,30,19.9z M30,14.4
			c1,0,1.8,0.8,1.8,1.8S31,18,30,18s-1.8-0.8-1.8-1.8C28.2,15.2,29,14.4,30,14.4z M26.9,20.6h0.9c0.2,0,0.5,0.1,0.7,0.3l1.5,1.5
			l1.5-1.5c0.2-0.2,0.4-0.3,0.7-0.3h0.9c1.9,0,3.4,1.5,3.4,3.4v2.4c0,0.5-0.4,0.9-0.9,0.9s-0.9-0.4-0.9-0.9v-2.4
			c0-0.8-0.7-1.5-1.5-1.5h-0.5l-1.7,1.7c-0.5,0.5-1.4,0.5-1.9,0l-1.6-1.7h-0.5c-0.8,0-1.5,0.7-1.5,1.5v2.4c0,0.5-0.4,0.9-0.9,0.9
			c-0.5,0-0.9-0.4-0.9-0.9v-2.4C23.5,22.1,25,20.6,26.9,20.6C26.9,20.6,26.9,20.6,26.9,20.6z M30,39.9c2.1,0,3.8-1.7,3.8-3.8
			c0-2.1-1.7-3.8-3.8-3.8s-3.8,1.7-3.8,3.8C26.2,38.2,27.9,39.9,30,39.9z M30,34.3c1,0,1.9,0.8,1.9,1.9c0,1-0.8,1.9-1.9,1.9
			s-1.9-0.8-1.9-1.9C28.1,35.1,29,34.3,30,34.3C30,34.3,30,34.3,30,34.3L30,34.3z M41.4,44.4c0.1,0.5-0.2,1-0.7,1.1
			c-0.5,0.1-1-0.2-1.1-0.7l-3.5-14.7H23.9l-3.5,14.7c-0.1,0.5-0.6,0.8-1.1,0.7c-0.5-0.1-0.8-0.6-0.7-1.1l0,0l3.5-14.8
			c0.2-0.8,0.9-1.4,1.8-1.4h12.3c0.8,0,1.6,0.6,1.8,1.4L41.4,44.4z M27.1,40.7h5.7c2.3,0,4.2,1.9,4.2,4.2v1.7c0,0.5-0.4,0.9-0.9,0.9
			s-0.9-0.4-0.9-0.9v-1.7c0-1.3-1-2.3-2.3-2.3h-5.7c-1.3,0-2.3,1-2.3,2.3v1.7c0,0.5-0.4,0.9-0.9,0.9S23,47.1,23,46.6v-1.7
			C23,42.6,24.8,40.7,27.1,40.7L27.1,40.7z M40.1,26.7c0,2,1.6,3.6,3.6,3.6c2,0,3.6-1.6,3.6-3.6s-1.6-3.6-3.6-3.6
			C41.7,23.2,40.1,24.8,40.1,26.7z M45.3,26.7c0,0.9-0.8,1.7-1.7,1.7c-0.9,0-1.7-0.8-1.7-1.7s0.8-1.7,1.7-1.7
			C44.6,25.1,45.3,25.8,45.3,26.7C45.3,26.7,45.3,26.7,45.3,26.7L45.3,26.7z M46.8,32.6c0.9,0.9,1.4,2.1,1.4,3.3v2.3
			c0,0.9-0.7,1.6-1.6,1.6h-4.3c-0.5,0-0.9-0.4-0.9-0.9s0.4-0.9,0.9-0.9h4.1v-2.1c0-1.5-1.2-2.7-2.7-2.7c-0.1,0-0.1,0-0.2,0
			c-0.7,0-1.3,0.4-1.8,0.9c-0.4,0.4-0.9,0.4-1.3,0.1c-0.4-0.3-0.4-0.9-0.1-1.3c0.8-0.9,1.9-1.4,3.1-1.5
			C44.6,31.3,45.9,31.7,46.8,32.6L46.8,32.6z M16.4,30.3c2,0,3.6-1.6,3.6-3.6c0-2-1.6-3.6-3.6-3.6s-3.6,1.6-3.6,3.6l0,0
			C12.8,28.7,14.4,30.3,16.4,30.3z M16.4,25.1c0.9,0,1.7,0.8,1.7,1.7s-0.8,1.7-1.7,1.7c-0.9,0-1.7-0.8-1.7-1.7l0,0
			C14.7,25.8,15.4,25.1,16.4,25.1C16.4,25.1,16.4,25.1,16.4,25.1L16.4,25.1z M11.8,38.2v-2.3c0-1.3,0.5-2.5,1.4-3.3
			c0.9-0.9,2.2-1.3,3.4-1.2c1.2,0.1,2.3,0.6,3.1,1.5c0.3,0.4,0.3,1-0.1,1.3c-0.4,0.3-1,0.3-1.3-0.1c-0.5-0.5-1.1-0.8-1.8-0.9
			c-1.5-0.1-2.8,1-2.9,2.5c0,0.1,0,0.1,0,0.2V38h4.1c0.5,0,0.9,0.4,0.9,0.9s-0.4,0.9-0.9,0.9h-4.3C12.5,39.9,11.8,39.1,11.8,38.2z"
			/>
	</g>
</g>
</svg>
