<?xml version="1.0" encoding="utf-8"?>
<!-- Generator: Adobe Illustrator 25.3.1, SVG Export Plug-In . SVG Version: 6.00 Build 0)  -->
<svg version="1.1" id="Camada_1" xmlns="http://www.w3.org/2000/svg" xmlns:xlink="http://www.w3.org/1999/xlink" x="0px" y="0px"
	 viewBox="0 0 60 60" style="enable-background:new 0 0 60 60;" xml:space="preserve">
<style type="text/css">
	.st0{fill:#C4C4CE;}
	.st1{fill:#FFFFFF;}
</style>
<g>
	<circle class="st0" cx="30" cy="30" r="30"/>
	<g>
		<path class="st1" d="M43,24.8h-7.7v-8c0-1.1-0.4-2.2-1.3-3.1l0,0c-0.8-0.8-1.9-1.3-3.1-1.3H17c-2.4,0-4.3,1.9-4.3,4.3v9.3
			c0,2.4,1.9,4.3,4.3,4.3h0.3v2.7c0,0.8,0.5,1.6,1.3,1.9c0.2,0.1,0.5,0.1,0.7,0.1c0.5,0,1-0.2,1.4-0.6l3.9-3.9v7.8
			c0,2.4,1.9,4.4,4.3,4.4c0,0,0,0,0,0h6.2l4.1,4.1c0.4,0.4,0.9,0.6,1.4,0.6c0.3,0,0.5-0.1,0.7-0.1c0.8-0.3,1.2-1,1.2-1.9v-2.7H43
			c2.4,0,4.3-1.9,4.3-4.3v-9.3C47.3,26.8,45.4,24.8,43,24.8z M24.5,28.8c-0.2,0-0.4,0.1-0.6,0.2l-4.3,4.3c-0.1,0.1-0.2,0.1-0.3,0.1
			c-0.1,0-0.2-0.2-0.2-0.3v-3.5c0-0.5-0.4-0.8-0.8-0.8H17c-1.5,0-2.7-1.2-2.7-2.7v-9.3c0-1.5,1.2-2.7,2.7-2.7h14
			c0.7,0,1.4,0.3,1.9,0.8l0,0c0.5,0.5,0.8,1.2,0.8,1.9v9.3c0,1.5-1.2,2.7-2.7,2.7L24.5,28.8z M45.6,38.5c0,1.5-1.2,2.7-2.7,2.7h-1.2
			c-0.5,0-0.8,0.4-0.8,0.8v3.5c0,0.2-0.1,0.3-0.3,0.3c-0.1,0-0.2,0-0.3-0.1l-4.3-4.3c-0.2-0.2-0.4-0.2-0.6-0.2H29
			c-1.5,0-2.7-1.2-2.7-2.7v-8H31c2.3,0,4.1-1.7,4.3-4H43c1.5,0,2.7,1.2,2.7,2.7L45.6,38.5z"/>
		<path class="st1" d="M23.8,16.5c-0.2,0-0.5,0-0.7,0.1c-0.6,0.1-1.1,0.4-1.5,0.8c-0.4,0.4-0.4,1-0.1,1.5c0.3,0.3,0.7,0.3,1.2,0
			c0,0,0.1-0.1,0.1-0.1c0.3-0.3,0.8-0.4,1.2-0.3c0.4,0,0.7,0.2,0.8,0.6c0.1,0.3,0,0.7-0.3,0.9c-0.1,0.1-0.3,0.2-0.4,0.3
			c-0.8,0.6-1.2,1.6-0.9,2.5c0.1,0.4,0.3,0.7,0.6,0.7s0.5-0.2,0.6-0.6c0.1-0.4,0.4-0.8,0.7-1.1c0.3-0.2,0.6-0.4,0.9-0.7
			c0.9-0.7,1.1-1.9,0.6-2.9C25.9,17,24.9,16.6,23.8,16.5z"/>
		<path class="st1" d="M23.9,24.1c-0.5-0.1-1,0.4-1.1,0.9c0,0.1,0,0.1,0,0.2c0,0.6,0.4,1.1,1,1.1c0,0,0.1,0,0.1,0
			c0.6,0,1.1-0.4,1.1-1c0,0,0-0.1,0-0.1c0-0.6-0.4-1-1-1.1C24,24.1,23.9,24.1,23.9,24.1z"/>
		<path class="st1" d="M30.8,32.8c-0.7,0-1.2,0.6-1.2,1.2c0,0.7,0.6,1.2,1.2,1.2c0.7,0,1.2-0.6,1.2-1.2l0,0
			C32,33.4,31.5,32.8,30.8,32.8z"/>
		<path class="st1" d="M36,32.8c-0.7,0-1.2,0.6-1.2,1.2c0,0.7,0.6,1.2,1.2,1.2c0.7,0,1.2-0.6,1.2-1.2C37.2,33.4,36.7,32.8,36,32.8
			C36,32.8,36,32.8,36,32.8z"/>
		<path class="st1" d="M41.2,32.8c-0.7,0-1.2,0.6-1.2,1.3s0.6,1.2,1.3,1.2c0.7,0,1.2-0.6,1.2-1.2C42.4,33.4,41.9,32.8,41.2,32.8
			C41.2,32.8,41.2,32.8,41.2,32.8z"/>
	</g>
</g>
</svg>
