<?xml version="1.0" encoding="utf-8"?>
<!-- Generator: Adobe Illustrator 25.3.1, SVG Export Plug-In . SVG Version: 6.00 Build 0)  -->
<svg version="1.1" id="Camada_1" xmlns="http://www.w3.org/2000/svg" xmlns:xlink="http://www.w3.org/1999/xlink" x="0px" y="0px"
	 viewBox="0 0 60 60" style="enable-background:new 0 0 60 60;" xml:space="preserve">
<style type="text/css">
	.st0{fill:#C4C4CE;}
	.st1{fill:#FFFFFF;}
</style>
<g>
	<circle class="st0" cx="30" cy="30" r="30"/>
	<g>
		<g>
			<path class="st1" d="M44.6,16.5H15.4c-1,0-1.9,0.8-1.9,1.9v23.3c0,1,0.8,1.9,1.9,1.9h29.3c1,0,1.9-0.8,1.9-1.9V18.4
				C46.5,17.3,45.7,16.5,44.6,16.5z M45.8,41.6c0,0.6-0.5,1.1-1.1,1.1H15.4c-0.6,0-1.1-0.5-1.1-1.1V18.4c0-0.6,0.5-1.1,1.1-1.1h29.3
				c0.6,0,1.1,0.5,1.1,1.1V41.6z"/>
			<path class="st1" d="M44.6,44H15.4c-1.3,0-2.4-1.1-2.4-2.4V18.4c0-1.3,1.1-2.4,2.4-2.4h29.3c1.3,0,2.4,1.1,2.4,2.4v23.3
				C47,42.9,45.9,44,44.6,44z M15.4,17.7c-0.4,0-0.6,0.3-0.6,0.6v23.3c0,0.4,0.3,0.6,0.6,0.6h29.3c0.4,0,0.6-0.3,0.6-0.6V18.4
				c0-0.4-0.3-0.6-0.6-0.6H15.4z"/>
		</g>
		<g>
			<path class="st1" d="M36.8,22.1c-2.9,0-5.3,2.4-5.3,5.3c0,1.4,0.6,2.7,1.5,3.7v6.1c0,0.5,0.6,0.9,1.1,0.7l2.7-1.2l2.7,1.2
				c0.5,0.2,1.1-0.1,1.1-0.7V31c0.9-0.9,1.5-2.2,1.5-3.7C42,24.5,39.7,22.1,36.8,22.1z M36.8,22.9c2.5,0,4.5,2,4.5,4.5
				c0,2.5-2,4.5-4.5,4.5c-2.5,0-4.5-2-4.5-4.5C32.3,24.9,34.3,22.9,36.8,22.9z M39.8,37.1l-2.7-1.2c-0.2-0.1-0.4-0.1-0.6,0l-2.7,1.2
				v-5.5c1.8,1.3,4.2,1.3,6,0V37.1z"/>
			<path class="st1" d="M39.8,38.3c-0.2,0-0.3,0-0.5-0.1L36.8,37l-2.5,1.1c-0.4,0.2-0.8,0.1-1.1-0.1c-0.3-0.2-0.5-0.6-0.5-1v-5.9
				c-1-1-1.5-2.4-1.5-3.8c0-3.1,2.5-5.6,5.6-5.6s5.6,2.5,5.6,5.6c0,1.4-0.5,2.8-1.5,3.8v5.9c0,0.4-0.2,0.7-0.5,1
				C40.2,38.2,40,38.3,39.8,38.3z M36.8,35.5c0.2,0,0.3,0,0.5,0.1l2.2,1v-4.2c-1.6,0.9-3.6,0.9-5.2,0v4.2l2.2-1
				C36.4,35.5,36.6,35.5,36.8,35.5z M36.8,23.3c-2.3,0-4.1,1.8-4.1,4.1s1.8,4.1,4.1,4.1c2.3,0,4.1-1.8,4.1-4.1S39,23.3,36.8,23.3z
				 M40.1,30.9C40.1,31,40,31,39.9,31.1L40.1,30.9z M33.4,31l0.2,0.1C33.5,31,33.5,31,33.4,31L33.4,31z"/>
		</g>
		<g>
			<path class="st1" d="M28.9,27.4H18.4c-0.5,0-0.5-0.8,0-0.8h10.5C29.4,26.6,29.4,27.4,28.9,27.4z"/>
			<path class="st1" d="M28.9,27.9H18.4c-0.5,0-0.9-0.4-0.9-0.9s0.4-0.9,0.9-0.9h10.5c0.5,0,0.9,0.4,0.9,0.9S29.4,27.9,28.9,27.9z
				 M28.9,27.1v0.3V27.1z M28.9,27.1L28.9,27.1v-0.2l0,0V27.1z"/>
		</g>
		<g>
			<path class="st1" d="M28.9,33.4H18.4c-0.5,0-0.5-0.8,0-0.8h10.5C29.4,32.6,29.4,33.4,28.9,33.4z"/>
			<path class="st1" d="M28.9,33.9H18.4c-0.5,0-0.9-0.4-0.9-0.9c0-0.5,0.4-0.9,0.9-0.9h10.5c0.5,0,0.9,0.4,0.9,0.9
				C29.7,33.5,29.4,33.9,28.9,33.9z M28.9,33.1v0.3V33.1z M28.9,33.1L28.9,33.1v-0.2l0,0V33.1z"/>
		</g>
		<g>
			<path class="st1" d="M36.8,24.7c-1.4,0-2.6,1.2-2.6,2.6s1.2,2.6,2.6,2.6c1.4,0,2.6-1.2,2.6-2.6S38.2,24.7,36.8,24.7z M36.8,29.2
				c-1,0-1.9-0.8-1.9-1.9c0-1,0.8-1.9,1.9-1.9c1,0,1.9,0.8,1.9,1.9C38.6,28.4,37.8,29.2,36.8,29.2z"/>
			<path class="st1" d="M36.8,30.4c-1.7,0-3-1.4-3-3s1.4-3,3-3c1.7,0,3,1.4,3,3S38.4,30.4,36.8,30.4z M36.8,25.9
				c-0.8,0-1.5,0.7-1.5,1.5s0.7,1.5,1.5,1.5c0.8,0,1.5-0.7,1.5-1.5S37.6,25.9,36.8,25.9z"/>
		</g>
	</g>
</g>
</svg>
