<?xml version="1.0" encoding="utf-8"?>
<!-- Generator: Adobe Illustrator 25.3.1, SVG Export Plug-In . SVG Version: 6.00 Build 0)  -->
<svg version="1.1" id="Camada_1" xmlns="http://www.w3.org/2000/svg" xmlns:xlink="http://www.w3.org/1999/xlink" x="0px" y="0px"
	 viewBox="0 0 20 20" style="enable-background:new 0 0 20 20;" xml:space="preserve">
<style type="text/css">
	.st0{fill-rule:evenodd;clip-rule:evenodd;fill:#FFFFFF;}
</style>
<g>
	<path class="st0" d="M10,11.6c-2.5,0-4.6-3.5-4.6-6.4S7.5,0,10,0s4.6,2.3,4.6,5.2C14.6,8.1,12.5,11.6,10,11.6z"/>
	<path class="st0" d="M5.8,10.7c1,1.2,2.5,2.4,4.1,2.4c1.6,0,3.1-1.1,4.1-2.3c3.8,0.9,5.6,3.3,5.9,6.2c0,0.1,0.1,0.2,0.1,0.4v1
		c0,0.9-0.7,1.5-1.5,1.5h-17C0.7,20,0,19.3,0,18.5v-1c0,0,0-0.1,0-0.1h0c0-0.1,0-0.1,0-0.2c0,0,0,0,0-0.1C0.3,14,1.7,11.6,5.8,10.7z
		"/>
</g>
</svg>
