<?xml version="1.0" encoding="utf-8"?>
<!-- Generator: Adobe Illustrator 25.3.1, SVG Export Plug-In . SVG Version: 6.00 Build 0)  -->
<svg version="1.1" id="Camada_1" xmlns="http://www.w3.org/2000/svg" xmlns:xlink="http://www.w3.org/1999/xlink" x="0px" y="0px"
	 viewBox="0 0 21 21" style="enable-background:new 0 0 21 21;" xml:space="preserve">
<style type="text/css">
	.st0{fill:#55AEFF;}
</style>
<g>
	<path class="st0" d="M10.6,5.6c-2.5,0-4.5,1.9-4.8,4.3c0,0.2,0,0.3,0,0.5c0,1,0.3,2,0.9,2.8l-0.6,1.8L8,14.3
		c0.8,0.5,1.7,0.8,2.6,0.8c2.6,0,4.8-2.1,4.8-4.8c0-0.1,0-0.2,0-0.4C15.2,7.5,13.1,5.6,10.6,5.6z M13.4,12.3
		c-0.1,0.3-0.7,0.6-0.9,0.7c-0.3,0-0.3,0.2-1.7-0.3c-1.4-0.6-2.3-2-2.4-2.1c0-0.1-0.4-0.5-0.5-1C7.8,9.4,7.8,9.3,7.8,9.1
		c0-0.7,0.4-1,0.5-1.2c0.1-0.1,0.3-0.2,0.4-0.2c0.1,0,0.2,0,0.3,0C9,7.8,9.2,7.7,9.3,8c0.1,0.3,0.4,1,0.4,1c0,0.1,0.1,0.1,0,0.2
		c0,0.1-0.1,0.1-0.1,0.2c0,0,0,0-0.1,0.1C9.5,9.6,9.4,9.7,9.4,9.7C9.3,9.8,9.2,9.9,9.3,10c0.1,0.1,0.4,0.6,0.8,1
		c0.5,0.5,1,0.6,1.1,0.7c0.1,0.1,0.2,0.1,0.3,0c0.1-0.1,0.4-0.4,0.4-0.5C12,11,12.1,11,12.3,11c0.1,0.1,0.8,0.4,1,0.5
		c0.1,0.1,0.2,0.1,0.3,0.2C13.5,11.7,13.5,12,13.4,12.3z"/>
	<path class="st0" d="M17.9,3.1C16,1.2,13.4,0,10.5,0C7.6,0,5,1.2,3.1,3.1C1.2,5,0,7.6,0,10.5c0,2.9,1.2,5.5,3.1,7.4
		C5,19.8,7.6,21,10.5,21c2.9,0,5.5-1.2,7.4-3.1c1.9-1.9,3.1-4.5,3.1-7.4C21,7.6,19.8,5,17.9,3.1z M10.6,16c-1,0-1.9-0.3-2.8-0.7
		l-3.2,1l1-3c-0.5-0.9-0.8-1.9-0.8-2.9c0-0.1,0-0.2,0-0.2c0.1-3,2.6-5.4,5.7-5.4c3.1,0,5.6,2.5,5.7,5.5c0,0.1,0,0.1,0,0.1
		C16.3,13.5,13.8,16,10.6,16z"/>
</g>
</svg>
