<?xml version="1.0" encoding="utf-8"?>
<!-- Generator: Adobe Illustrator 25.3.1, SVG Export Plug-In . SVG Version: 6.00 Build 0)  -->
<svg version="1.1" id="Camada_1" xmlns="http://www.w3.org/2000/svg" xmlns:xlink="http://www.w3.org/1999/xlink" x="0px" y="0px"
	 viewBox="0 0 21 21" style="enable-background:new 0 0 21 21;" xml:space="preserve">
<style type="text/css">
	.st0{fill:#55AEFF;}
</style>
<g>
	<polygon class="st0" points="9.3,8.7 9.3,9.5 9.3,12.1 12.4,10.4 10.7,9.4 	"/>
	<path class="st0" d="M17.9,3.1C16,1.2,13.4,0,10.5,0C7.6,0,5,1.2,3.1,3.1C1.2,5,0,7.6,0,10.5c0,2.9,1.2,5.5,3.1,7.4
		C5,19.8,7.6,21,10.5,21c2.9,0,5.5-1.2,7.4-3.1c1.9-1.9,3.1-4.5,3.1-7.4C21,7.6,19.8,5,17.9,3.1z M16.3,10.2V11c0,1-0.1,2-0.1,2
		s-0.1,0.8-0.5,1.2c-0.4,0.5-0.9,0.5-1.2,0.5c-1.6,0.1-4.1,0.1-4.1,0.1s-3,0-4-0.1c-0.3-0.1-0.8,0-1.3-0.5c-0.3-0.4-0.5-1.2-0.5-1.2
		s-0.1-1-0.1-2v-0.8V10c0-1,0.1-2,0.1-2s0.1-0.8,0.5-1.2c0.4-0.5,0.9-0.5,1.2-0.5c1.6-0.1,4.1-0.1,4.1-0.1h0c0,0,2.4,0,4.1,0.1
		c0.2,0,0.7,0,1.2,0.5c0.3,0.4,0.5,1.2,0.5,1.2s0.1,1,0.1,2V10.2z"/>
</g>
</svg>
